<?xml version="1.0" encoding="UTF-8" standalone="no"?>
<!-- Created with Inkscape (http://www.inkscape.org/) -->

<svg
   width="293mm"
   height="99mm"
   viewBox="0 0 293 99"
   version="1.1"
   id="svg1"
   inkscape:version="1.4 (e7c3feb1, 2024-10-09)"
   sodipodi:docname="sypres_logo_horizontal.svg"
   xmlns:inkscape="http://www.inkscape.org/namespaces/inkscape"
   xmlns:sodipodi="http://sodipodi.sourceforge.net/DTD/sodipodi-0.dtd"
   xmlns="http://www.w3.org/2000/svg"
   xmlns:svg="http://www.w3.org/2000/svg">
  <sodipodi:namedview
     id="namedview1"
     pagecolor="#ffffff"
     bordercolor="#000000"
     borderopacity="0.25"
     inkscape:showpageshadow="2"
     inkscape:pageopacity="0.0"
     inkscape:pagecheckerboard="0"
     inkscape:deskcolor="#d1d1d1"
     inkscape:document-units="mm"
     inkscape:zoom="0.38749597"
     inkscape:cx="574.19952"
     inkscape:cy="918.71923"
     inkscape:window-width="1200"
     inkscape:window-height="1051"
     inkscape:window-x="292"
     inkscape:window-y="38"
     inkscape:window-maximized="0"
     inkscape:current-layer="layer1" />
  <defs
     id="defs1">
    <linearGradient
       x1="0"
       y1="0"
       x2="0"
       y2="185"
       gradientUnits="userSpaceOnUse"
       gradientTransform="matrix(3.43658,0,0,-3.43658,1671.43,2114.5)"
       spreadMethod="pad"
       id="linearGradient4">
      <stop
         style="stop-opacity:1;stop-color:#f84d9e"
         offset="0"
         id="stop3" />
      <stop
         style="stop-opacity:1;stop-color:#ff7475"
         offset="1"
         id="stop4" />
    </linearGradient>
    <clipPath
       clipPathUnits="userSpaceOnUse"
       id="clipPath4">
      <path
         d="m 2613.91,1479.06 c -16.18,0 -31.29,10.67 -36.1,27.15 -58.43,203.79 -247.42,346.09 -459.49,346.09 -88.98,0 -175.59,-24.41 -250.86,-71.13 -17.5,-11.01 -40.55,-5.51 -51.52,11.99 -11.02,17.54 -5.51,40.59 11.99,51.57 86.95,53.94 187.3,82.15 290.39,82.15 122.34,0 238.52,-39.18 335.78,-113.4 93.83,-71.84 163.56,-173.56 195.86,-286.96 5.86,-19.96 -5.82,-40.58 -25.74,-46.4 -3.44,-0.35 -6.88,-1.06 -10.31,-1.06 z m -196.25,34.38 c 17.54,10.66 23.36,34.02 12.38,51.56 -67.03,109.61 -183.52,174.92 -311.72,174.92 -34.69,0 -69.06,-4.8 -102.38,-14.45 -19.92,-5.82 -31.29,-26.45 -25.43,-46.37 5.82,-19.96 26.79,-31.29 46.37,-25.43 26.13,7.54 53.63,11.68 81.13,11.68 102.07,0 194.49,-51.91 247.77,-139.18 7.23,-11.68 19.22,-17.89 31.95,-17.89 7.23,-0.35 14.11,1.37 19.93,5.16 z m 292.81,260.15 c 127.15,169.07 320.98,265.98 532.3,265.98 140.24,0 274.26,-42.93 387.66,-124.37 16.84,-12.04 40.19,-8.25 52.23,8.59 12.03,16.83 8.28,40.19 -8.6,52.23 -126.09,90.7 -275.58,138.47 -431.29,138.47 -118.55,0 -231.6,-27.15 -336.44,-80.74 -85.55,-43.63 -162.89,-104.8 -225.78,-178.01 -62.89,73.21 -140.2,134.38 -225.78,178.01 -104.81,53.59 -217.86,80.74 -336.45,80.74 -156.02,0 -305.16,-48.08 -431.29,-138.83 -16.83,-12.03 -20.58,-35.39 -8.55,-52.22 11.99,-16.84 35.39,-20.63 52.22,-8.6 113.4,81.45 247.42,124.73 387.62,124.73 211.37,0 405.2,-96.91 532.34,-265.98 7.23,-9.29 18.21,-15.11 29.89,-15.11 11.72,0 23.04,5.82 29.92,15.11 z m 72.85,-267.38 c 58.44,203.79 247.42,346.09 459.45,346.09 89.03,0 175.63,-24.41 250.9,-71.13 17.5,-11.01 40.55,-5.51 51.53,11.99 11.01,17.54 5.5,40.59 -12.04,51.57 -86.91,53.94 -187.26,82.15 -290.39,82.15 -122.34,0 -238.47,-39.18 -335.74,-113.4 -93.83,-71.84 -163.59,-173.56 -195.9,-286.96 -5.82,-19.96 5.86,-40.58 25.78,-46.4 3.44,-1.06 6.88,-1.37 10.32,-1.37 16.48,0.31 31.29,11.33 36.09,27.46 z m 211.68,19.61 c 53.28,86.95 146.05,139.18 247.77,139.18 27.85,0 55,-3.79 81.14,-11.68 19.92,-5.86 40.54,5.51 46.36,25.43 5.86,19.92 -5.47,40.55 -25.43,46.41 -32.96,9.61 -67.34,14.41 -102.38,14.41 -128.2,0 -244.69,-65.27 -311.72,-174.92 -10.66,-17.54 -5.15,-40.9 12.38,-51.56 6.18,-3.75 12.7,-5.47 19.58,-5.47 12.73,0.31 25.11,6.87 32.3,18.2 z"
         transform="translate(0,2.5e-5)"
         id="path4" />
    </clipPath>
  </defs>
  <g
     inkscape:label="Layer 1"
     inkscape:groupmode="layer"
     id="layer1">
    <g
       id="g3"
       transform="translate(-21.538089,-11.5)">
      <g
         id="g2"
         transform="translate(9.5592392,-39.030634)">
        <path
           id="path1"
           d="m 50.278813,90.621647 c -0.545748,-0.485069 -1.382184,-0.436738 -1.867252,0.109008 -1.030817,1.164521 -1.842558,2.460979 -2.400655,3.868208 -0.363712,0.920398 -0.61877,1.865842 -0.775758,2.848327 -0.436737,-0.217662 -0.884767,-0.424392 -1.333852,-0.606425 -0.351366,-0.144637 -0.715433,-0.278342 -1.0668,-0.399695 -1.164166,-0.399699 -2.364668,-0.691799 -3.588102,-0.87348 -0.02506,-0.04833 -0.04833,-0.109008 -0.07302,-0.157337 -1.564216,-3.502731 -5.225698,-5.746398 -9.3599,-5.746398 -0.04798,0 -0.08396,0 -0.132292,0 -0.727426,0.01236 -1.310568,0.606425 -1.310568,1.334206 0.0127,0.727427 0.594077,1.308807 1.321504,1.308807 h 0.0127 c 2.630664,-0.02469 5.007681,1.127477 6.377516,3.018012 -4.23192,-0.01093 -8.632118,1.176866 -12.730337,3.504493 -1.867254,-1.114777 -3.503083,-2.522008 -4.861631,-4.207227 0.242358,-0.884766 0.631119,-1.685218 1.151819,-2.375603 0.388762,-0.521055 0.861483,-0.98284 1.394531,-1.394532 0.581731,-0.437091 0.703085,-1.273527 0.255058,-1.854906 -0.43674,-0.581729 -1.273175,-0.702733 -1.854906,-0.255058 -0.727427,0.558096 -1.382183,1.20015 -1.916642,1.915583 -0.301977,0.412046 -0.581729,0.848783 -0.811741,1.297871 -0.351367,-0.643467 -0.667102,-1.297871 -0.945444,-1.964973 -0.279752,-0.67804 -1.05551,-0.993423 -1.721202,-0.726017 -0.67945,0.278342 -0.994833,1.041752 -0.727429,1.72085 0.654404,1.612548 1.514475,3.139369 2.545292,4.546246 0.04798,0.07303 0.09772,0.133704 0.158398,0.206729 1.369835,1.81751 3.005314,3.381727 4.872566,4.654904 -2.873023,2.02459 -5.382683,4.54625 -7.479948,7.52828 -0.424391,0.59407 -0.278341,1.41957 0.315738,1.84255 0.23001,0.1584 0.497417,0.24236 0.76341,0.24236 0.412044,0 0.82409,-0.19261 1.078794,-0.55668 2.133248,-3.03177 4.836937,-5.62504 7.844014,-7.56532 2.812344,1.39453 5.57671,2.02424 7.735007,2.29164 -0.06068,0.0607 -0.121357,0.12136 -0.182034,0.19297 -0.01236,0.0124 -0.01236,0.0124 -0.02469,0.0247 -0.690385,0.74013 -1.309158,1.52824 -1.83021,2.32763 -1.417815,-0.38735 -2.860675,-0.39969 -4.255206,-0.0236 -4.570942,1.22379 -5.843059,5.69842 -5.8928,5.89139 -0.192617,0.70414 0.219429,1.43016 0.922163,1.62454 0.121001,0.0374 0.23001,0.0483 0.351366,0.0483 0.581377,0 1.116187,-0.38735 1.273175,-0.96872 0.03598,-0.13371 0.933096,-3.20111 4.025194,-4.0379 0.751065,-0.20637 1.526823,-0.24236 2.290585,-0.10865 -0.2413,0.59372 -0.448027,1.20015 -0.605012,1.80657 -0.59408,2.2793 -0.59408,4.71558 -0.01236,7.24994 0.14464,0.60501 0.690385,1.01811 1.28411,1.01811 0.09807,0 0.20673,-0.0124 0.30339,-0.037 0.715081,-0.16933 1.151818,-0.87242 0.982485,-1.5875 -0.485069,-2.10961 -0.497417,-4.12185 -0.01236,-5.97782 0.242358,-0.9084 0.593725,-1.80516 1.066445,-2.6543 0.363715,-0.6544 0.800455,-1.30915 1.298223,-1.92793 0.897115,0.72778 1.49084,1.72121 1.648177,2.80035 0.303038,2.03659 -1.030816,3.56482 -1.309158,3.85587 -0.497769,0.53304 -0.485069,1.36948 0.04798,1.86725 0.255058,0.24236 0.581729,0.36371 0.90946,0.36371 0.351719,0 0.703085,-0.1337 0.957792,-0.41204 0.424392,-0.44944 2.486025,-2.81411 2.000956,-6.06214 -0.255058,-1.66193 -1.128538,-3.18876 -2.437696,-4.31588 0.401108,-0.35137 0.813155,-0.6918 1.26083,-1.00612 0.836435,-0.61877 1.758595,-1.18922 2.752018,-1.70992 0.401109,1.32151 0.654402,2.66771 0.764824,4.0252 0.08396,1.01847 0.08396,2.06022 0,3.09104 -0.06068,0.72742 0.483658,1.36948 1.211437,1.41922 0.03704,0 0.07302,0 0.110066,0 0.67804,0 1.259417,-0.52211 1.320094,-1.21285 0.09807,-1.17651 0.09807,-2.35232 0,-3.51507 -0.132292,-1.67429 -0.460021,-3.32247 -0.968727,-4.92267 0.727781,-0.29068 1.478844,-0.54539 2.254602,-0.7881 0.581379,-0.18203 1.187804,-0.33902 1.794229,-0.47272 0.399696,0.21766 0.800452,0.44802 1.20015,0.70273 0.01236,0.0127 0.02469,0.0127 0.03598,0.0251 0.02468,0.0109 0.04939,0.0233 0.07302,0.0356 0.01236,0.0127 0.03704,0.0127 0.04798,0.0251 0.02506,0.0109 0.04974,0.0233 0.07303,0.0233 0.02506,0.0124 0.03739,0.0124 0.06068,0.0247 0.02506,0.0127 0.0374,0.0127 0.06068,0.0236 0.02469,0.0124 0.04833,0.0124 0.07302,0.0124 0.02469,0 0.03598,0.0124 0.06068,0.0124 0.02469,0 0.04833,0.0124 0.07302,0.0124 0.01236,0 0.03598,0 0.04833,0 0.02328,0 0.06068,0 0.08396,0 0.01236,0 0.02469,0 0.03739,0 h 0.01236 c 0,0 0,0 0.01093,0 0.03704,0 0.06068,0 0.08537,0 0.01236,0 0.02468,0 0.04833,0 0.02469,0 0.04833,-0.0124 0.07303,-0.0124 0.02469,0 0.03563,0 0.06068,-0.0124 0.01236,0 0.02469,-0.0124 0.03563,-0.0124 0.09807,-0.0236 0.182034,-0.0607 0.279752,-0.0967 0.133702,-0.0607 0.24271,-0.14605 0.351367,-0.2547 0.0127,-0.0124 0.03598,-0.036 0.04833,-0.0607 0.01236,-0.0124 0.02469,-0.0236 0.03598,-0.0483 0.01236,-0.0124 0.02469,-0.0247 0.03704,-0.0356 0.01236,-0.0251 0.03598,-0.0497 0.04833,-0.0607 0,0 0,0 0,-0.0127 0.01236,-0.0124 0.01236,-0.0247 0.02469,-0.037 0.01093,-0.0233 0.02363,-0.0483 0.03598,-0.0716 0.01236,-0.0124 0.01236,-0.0374 0.02469,-0.0483 0.01093,-0.0247 0.02328,-0.0494 0.03598,-0.073 0.01236,-0.0247 0.01236,-0.037 0.02469,-0.0607 0.01093,-0.0247 0.01093,-0.037 0.02328,-0.06068 0.01236,-0.02469 0.01236,-0.04798 0.01236,-0.07303 0,-0.02469 0.0127,-0.03563 0.0127,-0.06033 0,-0.02506 0.01236,-0.04833 0.01236,-0.08572 0,-0.01093 0,-0.03563 0,-0.04798 0,-0.03598 0,-0.06068 0,-0.09666 0,-0.01236 0,-0.02469 0,-0.03704 -0.01236,-1.418166 0.23001,-2.775656 0.738717,-4.036483 0.449085,-1.116187 1.091141,-2.157941 1.915229,-3.092095 0.522464,-0.508707 0.472723,-1.345142 -0.08396,-1.830213 z m -12.232921,7.456664 c 0.07302,0.01093 0.157338,0.02328 0.242711,0.02328 0.727427,0.08537 1.43016,0.206726 2.133245,0.376412 -0.751062,0.265996 -1.466495,0.558096 -2.170639,0.872066 -1.514475,0.679451 -2.921355,1.480261 -4.182182,2.377371 -1.539523,-0.0127 -4.497916,-0.23177 -7.71031,-1.4679 3.85586,-1.829862 7.891992,-2.569992 11.687175,-2.181229 z m 68.388088,9.843209 c -2.09762,-2.98203 -4.60693,-5.50369 -7.479949,-7.52828 1.867249,-1.273177 3.504139,-2.837394 4.873979,-4.654904 0.0483,-0.07303 0.10901,-0.133704 0.14464,-0.206729 1.03081,-1.406877 1.89194,-2.933698 2.5467,-4.546246 0.27834,-0.679098 -0.0483,-1.442508 -0.72778,-1.72085 -0.6791,-0.279752 -1.44251,0.04798 -1.7212,0.726017 -0.27835,0.667102 -0.59373,1.333852 -0.9451,1.964973 -0.24271,-0.461433 -0.51011,-0.885825 -0.81315,-1.297871 -0.5334,-0.715433 -1.1878,-1.369835 -1.91558,-1.915583 -0.581378,-0.435327 -1.405468,-0.326671 -1.854553,0.255058 -0.437091,0.581379 -0.326673,1.406879 0.254704,1.854906 0.5334,0.399344 1.006123,0.873477 1.394529,1.394532 0.52105,0.690385 0.9084,1.490837 1.15076,2.375603 -1.357484,1.685219 -2.982026,3.103386 -4.860216,4.207227 -4.098218,-2.327627 -8.499827,-3.515428 -12.730339,-3.504493 1.357137,-1.878187 3.684764,-3.018012 6.279798,-3.018012 0.03704,0 0.07303,0 0.09772,0 0.726371,0 1.332442,-0.58138 1.332442,-1.308807 0.01236,-0.727781 -0.581377,-1.334206 -1.309159,-1.334206 -4.182178,-0.04798 -7.904337,2.206273 -9.491837,5.746398 -0.02468,0.04833 -0.04974,0.109008 -0.07302,0.157337 -1.225198,0.181681 -2.425348,0.473781 -3.576108,0.87348 -0.352779,0.121353 -0.716492,0.255058 -1.067858,0.399695 -0.44803,0.182033 -0.884767,0.388763 -1.332442,0.606425 -0.14605,-0.982485 -0.401108,-1.940277 -0.77611,-2.848327 -0.558096,-1.407229 -1.370896,-2.703687 -2.4003,-3.868208 -0.485071,-0.545746 -1.321506,-0.594077 -1.867255,-0.109008 -0.545745,0.485071 -0.594076,1.321506 -0.109008,1.867254 0.82409,0.933096 1.478846,1.97626 1.915583,3.091037 0.508355,1.260827 0.751065,2.618317 0.738717,4.037542 0,0.01236 0,0.02363 0,0.03598 0,0.03704 0,0.06068 0,0.09772 0,0.01093 0,0.03598 0,0.04833 0,0.02328 0.01236,0.04833 0.01236,0.08396 0,0.02469 0.01236,0.0374 0.01236,0.06068 0,0.02469 0.01236,0.04974 0.01236,0.07303 0.01093,0.0247 0.01093,0.037 0.02328,0.0607 0.0127,0.0247 0.0127,0.037 0.02506,0.0607 0.01236,0.0247 0.02328,0.048 0.03563,0.073 0.0127,0.0124 0.0127,0.0356 0.02506,0.048 0.01236,0.0251 0.02328,0.0483 0.03563,0.073 0.01236,0.0127 0.01236,0.0236 0.02506,0.036 0,0 0,0 0,0.0124 0.01236,0.0251 0.03563,0.0483 0.04798,0.0607 0.01236,0.0124 0.02506,0.0247 0.03598,0.036 0.01236,0.0124 0.02468,0.0247 0.03704,0.0494 0.01236,0.0236 0.03598,0.036 0.04833,0.0607 0.09631,0.0967 0.206727,0.18203 0.328083,0.24271 0.09631,0.048 0.205317,0.0963 0.326319,0.121 h 0.0127 c 0.02328,0 0.04798,0.0113 0.07303,0.0113 0.02328,0 0.03563,0.0124 0.06068,0.0124 0.01093,0 0.03563,0 0.04798,0 0.02363,0 0.04833,0 0.08431,0 h 0.01236 0.01236 c 0.01236,0 0.02469,0 0.03563,0 0.02506,0 0.04974,0 0.07303,0 0.02506,0 0.0374,0 0.06068,-0.0124 0.02506,0 0.04833,-0.0113 0.07303,-0.0113 0.02506,0 0.03598,-0.0124 0.06068,-0.0124 0.02506,0 0.03598,-0.0124 0.06068,-0.0124 0.02468,-0.0124 0.04833,-0.0124 0.07303,-0.0247 0.01236,-0.0109 0.03598,-0.0109 0.04833,-0.0236 0.02469,-0.0124 0.04833,-0.0247 0.07303,-0.037 0.01236,-0.0109 0.03563,-0.0109 0.04833,-0.0233 0.02328,-0.0127 0.04798,-0.0251 0.07302,-0.0374 0.01093,-0.0109 0.02328,-0.0109 0.03563,-0.0233 0.399698,-0.25506 0.800807,-0.48507 1.200502,-0.70308 0.606073,0.14499 1.212498,0.30197 1.793875,0.47272 0.776113,0.23036 1.528588,0.49636 2.254605,0.77576 -0.508355,1.6002 -0.836438,3.24838 -0.96873,4.92266 -0.09772,1.16275 -0.09772,2.33856 0,3.51508 0.06068,0.69074 0.629708,1.21285 1.321506,1.21285 0.03598,0 0.07162,0 0.109009,0 0.727427,-0.0607 1.273175,-0.6918 1.212498,-1.41923 -0.08537,-1.03082 -0.08537,-2.07257 0,-3.09104 0.109008,-1.35749 0.362654,-2.71603 0.76341,-4.02519 0.981427,0.5207 1.903235,1.09114 2.752019,1.70991 0.436739,0.32667 0.860073,0.65476 1.248481,1.00612 -1.309158,1.12713 -2.182635,2.65395 -2.436283,4.31589 -0.485069,3.24802 1.575152,5.62539 1.999543,6.06213 0.254707,0.27834 0.606425,0.41205 0.957792,0.41205 0.327731,0 0.654404,-0.12136 0.909463,-0.36372 0.533045,-0.49777 0.558093,-1.33421 0.04833,-1.86725 -0.265994,-0.29104 -1.612546,-1.81928 -1.309159,-3.85586 0.158398,-1.07915 0.763413,-2.07257 1.649238,-2.80035 0.496358,0.61877 0.933096,1.26118 1.29681,1.92793 0.472723,0.84913 0.82409,1.7459 1.0668,2.6543 0.485069,1.85596 0.485069,3.86821 -0.0127,5.97782 -0.169333,0.71508 0.279752,1.41816 0.98284,1.5875 0.09631,0.0247 0.206727,0.037 0.303035,0.037 0.606425,0 1.139473,-0.41311 1.284465,-1.01812 0.595135,-2.53435 0.582787,-4.97064 -0.0113,-7.24993 -0.158398,-0.60643 -0.363714,-1.21285 -0.606073,-1.80658 0.763413,-0.1337 1.539171,-0.0977 2.291646,0.10866 3.090686,0.82408 3.9878,3.90419 4.023784,4.03789 0.158395,0.58138 0.691795,0.96873 1.273175,0.96873 0.121353,0 0.230362,-0.0109 0.351366,-0.0483 0.704143,-0.19439 1.116183,-0.9204 0.922163,-1.62455 -0.0483,-0.19297 -1.321509,-4.6676 -5.89245,-5.89139 -1.393471,-0.37606 -2.848679,-0.36371 -4.255559,0.0236 -0.521052,-0.81174 -1.13947,-1.5875 -1.829858,-2.32762 -0.0127,-0.0124 -0.0127,-0.0124 -0.02506,-0.0247 0,0 0,0 -0.01236,-0.0109 -0.06068,-0.0607 -0.121357,-0.12136 -0.182033,-0.19438 2.158293,-0.27834 4.92266,-0.89712 7.735006,-2.29165 3.019425,1.94028 5.723114,4.53355 7.844014,7.56532 0.2547,0.36372 0.66675,0.5581 1.07879,0.5581 0.26741,0 0.53481,-0.073 0.76482,-0.24236 0.65476,-0.41204 0.7994,-1.23754 0.37501,-1.83162 z m -12.910964,-7.64928 c -3.212042,1.23613 -6.158442,1.45521 -7.709958,1.46614 -1.261179,-0.89711 -2.668058,-1.69651 -4.183944,-2.375959 -0.702733,-0.315383 -1.417814,-0.606073 -2.168877,-0.872066 0.702734,-0.171098 1.405467,-0.2921 2.133246,-0.376415 0.08537,0 0.169333,-0.01236 0.242358,-0.02469 3.795183,-0.399698 7.831315,0.340432 11.687175,2.18299 z M 72.342594,85.638661 c -2.290233,1.273527 -3.939823,2.678994 -4.945946,3.515432 -2.521654,2.134658 -4.654902,4.716991 -6.316837,7.663389 -0.230013,0.412046 -0.67804,0.665339 -1.150763,0.665339 -0.472369,0 -0.921808,-0.253293 -1.151819,-0.665339 -1.660525,-2.946398 -3.795183,-5.528731 -6.316839,-7.663389 -0.993775,-0.847373 -2.6543,-2.241905 -4.933596,-3.515432 -0.01236,-0.01236 -0.02468,-0.01236 -0.03704,-0.02328 -0.92075,-0.510117 -1.951567,-1.007533 -3.09104,-1.431925 -0.424392,0.727781 -0.982485,1.371248 -1.660525,1.867252 -1.273175,0.945446 -2.64301,1.187804 -3.70981,1.187804 -0.873477,0 -1.528234,-0.156987 -1.758244,-0.217664 -0.702733,-0.194382 -1.11619,-0.921809 -0.921808,-1.624542 0.194027,-0.703085 0.921808,-1.115131 1.624541,-0.92075 0.182034,0.04833 1.818921,0.472723 3.176411,-0.534458 0.217662,-0.15734 0.412043,-0.351367 0.581728,-0.556684 -1.0668,-0.255058 -2.193922,-0.437091 -3.406772,-0.522464 -3.042708,-0.230011 -6.097765,0.182033 -9.056513,1.21285 -0.01093,0 -0.02328,0.01236 -0.03563,0.01236 -0.133704,0.04798 -0.267406,0.09631 -0.399698,0.14605 -0.01236,0.02328 -0.03704,0.03563 -0.04833,0.06068 -0.934154,0.968729 -1.552927,2.072571 -1.843617,3.297414 -0.424391,1.794227 -0.04833,3.406775 0.340432,4.436182 0.253293,0.679095 -0.08573,1.442508 -0.764823,1.709912 -0.157337,0.06068 -0.314325,0.08537 -0.472721,0.08537 -0.5334,0 -1.030816,-0.327732 -1.236133,-0.848783 -0.521055,-1.382184 -1.030817,-3.540125 -0.43674,-5.988757 0.194027,-0.836787 0.509765,-1.624893 0.921808,-2.36502 -0.04833,-0.06032 -0.08537,-0.13335 -0.121356,-0.205317 -0.23001,-0.497417 -0.133702,-1.055513 0.217665,-1.442508 -1.842207,-0.946857 -3.381727,-2.268363 -4.558594,-3.952523 -0.66675,-0.95744 -1.20015,-1.988257 -1.5748,-3.07975 -0.242713,-0.690385 0.121002,-1.44286 0.811387,-1.685219 0.690388,-0.242713 1.442863,0.121002 1.685573,0.8128 0.303036,0.860071 0.715082,1.673225 1.248482,2.436635 1.175454,1.685219 2.812343,2.921352 4.849283,3.661127 0.315383,0.121357 0.642054,0.218017 0.970137,0.30339 2.764367,-0.921808 5.600348,-1.346552 8.43774,-1.285875 -0.76341,-1.5875 -1.345142,-3.236735 -1.745898,-4.933243 -0.144993,-0.606432 -0.265995,-1.237554 -0.364068,-1.854914 -1.018117,-0.449085 -2.084917,-0.606425 -3.115733,-0.449085 -2.218619,0.339018 -3.575754,2.024237 -4.060825,2.739318 -0.255059,0.376415 -0.667102,0.583142 -1.091494,0.583142 -0.253648,0 -0.508706,-0.07302 -0.738716,-0.231775 -0.606425,-0.412043 -0.764824,-1.235781 -0.352777,-1.829858 0.67945,-0.993423 2.607378,-3.370792 5.856816,-3.866798 1.078794,-0.170744 2.181225,-0.09772 3.260371,0.180623 -0.04833,-1.514475 0.06068,-3.042708 0.303038,-4.569532 0.437091,-2.691341 1.309158,-5.395028 2.607379,-8.038393 0.205316,-0.449085 0.66675,-0.76341 1.20015,-0.76341 0.727781,0 1.321506,0.594077 1.321506,1.321506 0,0.205317 -0.04939,0.399696 -0.133705,0.581729 -0.800451,1.624542 -1.417812,3.260373 -1.867251,4.90996 1.842558,-0.558093 3.673826,-0.631118 5.407731,-0.206727 1.369483,0.340432 2.64301,0.982485 3.806119,1.904294 0.570441,0.448029 0.666749,1.284465 0.219074,1.854906 -0.267406,0.326673 -0.643818,0.496007 -1.043164,0.496007 -0.291042,0 -0.581729,-0.09631 -0.824087,-0.29069 -0.861484,-0.67804 -1.806575,-1.151819 -2.80035,-1.405467 -1.697567,-0.424391 -3.504142,-0.182033 -5.384094,0.702734 -0.230013,1.794226 -0.242358,3.588456 -0.03563,5.334351 0.09631,0.763413 0.23001,1.526823 0.399698,2.279298 0.47272,2.011892 1.248479,3.964517 2.291643,5.807075 2.425346,0.363715 4.570942,1.0541 6.4135,1.8796 0.03563,-0.886177 0.121002,-1.770591 0.267052,-2.64301 0.182034,-1.043165 0.423334,-2.02565 0.751065,-2.994379 -1.091496,-0.8255 -2.230967,-1.576562 -3.406423,-2.256012 -1.018469,-0.58138 -2.084917,-1.11478 -3.17641,-1.5875 -0.667105,-0.29069 -0.982488,-1.066449 -0.691798,-1.73355 0.2921,-0.667105 1.067858,-0.982488 1.73355,-0.691798 1.176866,0.509764 2.329039,1.091493 3.431468,1.722614 1.078796,0.61736 2.134658,1.309159 3.152775,2.036585 0.642408,-1.285523 1.369838,-2.389364 2.060223,-3.46851 1.260827,-1.938866 2.352323,-3.624088 2.739673,-5.903383 0.06068,-0.388763 0.110067,-0.775758 0.121002,-1.175456 -1.20015,-1.139825 -2.580923,-1.904648 -4.096808,-2.279298 -1.394532,-0.340429 -2.885369,-0.340429 -4.328232,0 -0.715433,0.169333 -1.418166,-0.267404 -1.5875,-0.982486 -0.171095,-0.715433 0.265997,-1.418166 0.981075,-1.5875 1.854907,-0.449437 3.782838,-0.449437 5.589413,0 1.066446,0.265997 2.084917,0.67804 3.03036,1.223786 -0.448026,-1.660523 -1.248833,-3.394427 -2.388306,-5.188302 -0.38735,-0.618771 -0.205317,-1.430512 0.412046,-1.819275 0.618771,-0.386996 1.430512,-0.205317 1.818921,0.412046 2.133248,3.383137 3.224741,6.632572 3.237089,9.67528 0,0 0,0 0,0.01236 0,0.726368 -0.06068,1.44145 -0.169333,2.145593 -0.472723,2.825046 -1.819275,4.897615 -3.128433,6.909506 -0.897115,1.382184 -1.829859,2.825044 -2.534002,4.570942 v 0.01236 c -0.435682,1.091494 -0.751065,2.193925 -0.945446,3.394075 -0.194379,1.164519 -0.278342,2.36502 -0.242359,3.56517 1.285523,0.751065 2.352323,1.526824 3.22439,2.218622 0.279752,-1.588913 0.631119,-3.15313 1.05551,-4.704647 0.472723,-1.708853 1.041755,-3.431468 1.696509,-5.091993 0.267406,-0.677685 1.030816,-1.018117 1.710266,-0.75071 0.67804,0.265641 1.018117,1.030462 0.751065,1.708502 -0.61736,1.576564 -1.163108,3.201458 -1.612548,4.826 -0.5334,1.96356 -0.957792,3.975451 -1.236133,5.989108 1.867254,1.696156 3.515431,3.624085 4.922308,5.758743 1.405821,-2.134658 3.055408,-4.062587 4.92125,-5.758743 -0.278342,-2.026002 -0.703085,-4.025548 -1.236133,-5.989108 -0.448027,-1.624542 -0.981075,-3.249436 -1.612546,-4.826 -0.267054,-0.67804 0.06068,-1.442861 0.751062,-1.708502 0.67945,-0.267407 1.442863,0.06033 1.710267,0.75071 0.654404,1.660525 1.225198,3.38314 1.697921,5.091993 0.424392,1.540582 0.775758,3.115734 1.0541,4.704647 0.872067,-0.67945 1.951212,-1.455209 3.224387,-2.218622 0.0374,-1.20015 -0.04798,-2.400651 -0.242358,-3.56517 -0.205317,-1.187804 -0.508352,-2.302581 -0.945444,-3.381375 0,0 0,0 0,-0.0127 -0.702733,-1.745898 -1.63689,-3.188758 -2.534002,-4.570942 -1.309158,-2.011891 -2.6543,-4.085873 -3.127023,-6.909506 -0.121002,-0.704143 -0.181681,-1.419225 -0.170743,-2.147006 0.01236,-3.042709 1.103841,-6.303079 3.237087,-9.673519 0.388408,-0.61877 1.212498,-0.800804 1.818923,-0.412043 0.618773,0.386998 0.800806,1.211085 0.412043,1.81751 -1.13947,1.794229 -1.927928,3.540125 -2.388303,5.189715 0.945443,-0.558094 1.963912,-0.97014 3.03036,-1.237544 1.794227,-0.447675 3.734506,-0.447675 5.58941,0 0.715081,0.170744 1.152173,0.886177 0.982485,1.58891 -0.169333,0.715079 -0.886177,1.152171 -1.58891,0.981075 -1.44286,-0.351366 -2.946045,-0.351366 -4.328229,0 -1.514475,0.376412 -2.896658,1.139825 -4.097163,2.279296 0.02363,0.401108 0.06068,0.788458 0.121357,1.176866 0.38735,2.279298 1.466143,3.964517 2.739673,5.903384 0.702733,1.079148 1.417812,2.195337 2.061633,3.467454 1.018117,-0.738717 2.072569,-1.418167 3.151362,-2.03694 1.103842,-0.629708 2.254602,-1.211085 3.431469,-1.721202 0.66675,-0.290689 1.442863,0.01236 1.73355,0.691796 0.29069,0.665692 -0.01236,1.44145 -0.691796,1.73355 -1.090083,0.472723 -2.157941,1.006123 -3.176412,1.5875 -1.175454,0.667104 -2.315279,1.430515 -3.406421,2.254604 0.327732,0.957792 0.58279,1.952625 0.752475,2.994377 0.14464,0.873832 0.23001,1.758598 0.265642,2.64301 1.843968,-0.824087 3.977216,-1.514475 6.4135,-1.878187 1.05551,-1.831271 1.81892,-3.782837 2.291643,-5.807075 0.182034,-0.752475 0.315736,-1.515887 0.399698,-2.279298 0.219075,-1.758243 0.194379,-3.552473 -0.03598,-5.334351 -1.8669,-0.884767 -3.673829,-1.127125 -5.382331,-0.704147 -0.995186,0.242713 -1.940277,0.716492 -2.80035,1.40688 -0.242359,0.194379 -0.534459,0.291042 -0.8255,0.291042 -0.386996,0 -0.775759,-0.169688 -1.041752,-0.497772 -0.449085,-0.569028 -0.363715,-1.405466 0.217665,-1.854552 1.164518,-0.92075 2.436635,-1.562806 3.806118,-1.903235 1.73496,-0.424391 3.565171,-0.351366 5.407729,0.206727 -0.435679,-1.64959 -1.0668,-3.285066 -1.867252,-4.90996 -0.08432,-0.182033 -0.132292,-0.37606 -0.132292,-0.58279 0,-0.726368 0.593725,-1.321504 1.321507,-1.321504 0.533045,0 1.005768,0.315384 1.211085,0.777169 1.298223,2.630662 2.170642,5.332942 2.595033,8.025693 0.242359,1.526824 0.339019,3.055057 0.303035,4.569532 1.079149,-0.278342 2.17029,-0.339021 3.261784,-0.182034 3.248025,0.497417 5.175956,2.873375 5.855406,3.868209 0.412044,0.606425 0.255058,1.430512 -0.351367,1.83021 -0.230364,0.158398 -0.485068,0.23001 -0.740126,0.23001 -0.424392,0 -0.836438,-0.205316 -1.091497,-0.581729 -0.485068,-0.715081 -1.842203,-2.4003 -4.060825,-2.739321 -1.030816,-0.158395 -2.097616,0 -3.115733,0.447675 -0.09666,0.618773 -0.218017,1.248482 -0.364067,1.854907 -0.399343,1.697918 -0.982485,3.347156 -1.745895,4.934656 2.849737,-0.06032 5.674783,0.376412 8.437737,1.285875 0.328083,-0.08537 0.643467,-0.194381 0.97014,-0.303038 2.03694,-0.740127 3.661481,-1.97626 4.836935,-3.661479 0.534813,-0.752475 0.946856,-1.576564 1.249892,-2.437696 0.242713,-0.690385 0.993423,-1.054452 1.683808,-0.811741 0.6918,0.242358 1.05586,0.993423 0.81315,1.685221 -0.37606,1.091493 -0.909458,2.133245 -1.57656,3.078691 -1.187802,1.685219 -2.714625,3.019071 -4.558242,3.952169 0.340077,0.388408 0.449085,0.946502 0.219075,1.44286 -0.03739,0.07302 -0.07303,0.14605 -0.121356,0.20673 0.412046,0.751062 0.715081,1.539168 0.920398,2.363258 0.583141,2.450042 0.08537,4.607983 -0.435327,5.990167 -0.20673,0.5334 -0.704146,0.847725 -1.237546,0.847725 -0.156986,0 -0.314325,-0.02363 -0.472721,-0.08432 -0.67945,-0.254707 -1.030816,-1.018117 -0.763413,-1.709915 0.38735,-1.030817 0.763413,-2.643362 0.339022,-4.437237 -0.29069,-1.223788 -0.909463,-2.32763 -1.842559,-3.297767 -0.02469,-0.02363 -0.03563,-0.03598 -0.04798,-0.06068 -0.133702,-0.04833 -0.267404,-0.09631 -0.401109,-0.144637 -0.01093,0 -0.02328,-0.01236 -0.03598,-0.01236 -2.958393,-1.030817 -6.01345,-1.442861 -9.056158,-1.21285 -1.200502,0.08537 -2.339975,0.279752 -3.406775,0.522464 0.169688,0.205317 0.364067,0.386996 0.581731,0.556684 1.358548,1.005768 2.994377,0.593725 3.176411,0.5334 0.704146,-0.192971 1.431573,0.219075 1.624541,0.921808 0.194382,0.702733 -0.217662,1.43016 -0.920395,1.624542 -0.231775,0.06068 -0.88618,0.217662 -1.758598,0.217662 -1.0541,0 -2.436284,-0.242359 -3.709459,-1.187802 -0.67945,-0.508352 -1.248481,-1.139473 -1.660525,-1.867252 -1.139825,0.424392 -2.170641,0.92216 -3.104795,1.44286 0.01236,-0.01236 0.01236,0 0,0 z"
           style="fill:#1da373;fill-opacity:1;fill-rule:nonzero;stroke:none;stroke-width:0.0352777" />
        <path
           id="path2"
           d="m 52.111494,102.45911 c 3.806119,4.31588 5.8801,9.68621 5.83071,15.10594 -0.04833,5.47899 -2.254601,9.81992 -4.084814,12.48657 -0.254704,0.37606 -0.66675,0.57044 -1.091142,0.57044 -0.255058,0 -0.522462,-0.073 -0.752475,-0.23001 -0.606425,-0.41345 -0.751062,-1.23754 -0.339019,-1.84397 1.624542,-2.36326 3.576109,-6.19443 3.624086,-11.00772 0.04974,-4.76392 -1.794227,-9.50454 -5.163254,-13.32442 -0.279755,-0.31397 -0.583142,-0.64206 -0.897115,-0.95779 -0.522465,-0.5207 -0.510117,-1.35714 0,-1.86584 0.5207,-0.52211 1.357135,-0.50977 1.865842,0 0.352777,0.35136 0.67945,0.70308 1.007181,1.0668 z m 18.488025,-1.07915 c -0.521055,-0.5207 -1.35749,-0.50976 -1.867255,0 -0.351718,0.35136 -0.690385,0.71543 -1.00612,1.0668 -3.806121,4.31588 -5.8801,9.68622 -5.831771,15.10594 0.04939,5.47899 2.255663,9.81992 4.085873,12.48657 0.254706,0.37606 0.66675,0.57044 1.091493,0.57044 0.254707,0 0.5207,-0.073 0.750713,-0.23036 0.606425,-0.41204 0.752475,-1.23719 0.340429,-1.8422 -1.624542,-2.36468 -3.577166,-6.19584 -3.625495,-11.00914 -0.04833,-4.76391 1.794227,-9.50454 5.165018,-13.32301 0.278342,-0.31538 0.581377,-0.64346 0.897115,-0.95779 0.5207,-0.50976 0.5207,-1.3462 0,-1.86725 z m -10.681406,6.11046 c -2.375607,0 -4.303535,-1.92793 -4.303535,-4.30389 0,-2.37701 1.927928,-4.303534 4.303535,-4.303534 2.377016,0 4.304948,1.926524 4.304948,4.303534 0,2.37596 -1.927932,4.30389 -4.304948,4.30389 z m 1.661935,-4.2926 c 0,-0.9084 -0.740127,-1.66052 -1.661935,-1.66052 -0.90805,0 -1.660525,0.73977 -1.660525,1.66052 0,0.92181 0.740127,1.66194 1.660525,1.66194 0.90946,-0.0127 1.661935,-0.75248 1.661935,-1.66194 z"
           style="fill:#1f44a0;fill-opacity:1;fill-rule:nonzero;stroke:none;stroke-width:0.0352777" />
        <path
           id="path3"
           d="m 2613.91,1479.06 c -16.18,0 -31.29,10.67 -36.1,27.15 -58.43,203.79 -247.42,346.09 -459.49,346.09 -88.98,0 -175.59,-24.41 -250.86,-71.13 -17.5,-11.01 -40.55,-5.51 -51.52,11.99 -11.02,17.54 -5.51,40.59 11.99,51.57 86.95,53.94 187.3,82.15 290.39,82.15 122.34,0 238.52,-39.18 335.78,-113.4 93.83,-71.84 163.56,-173.56 195.86,-286.96 5.86,-19.96 -5.82,-40.58 -25.74,-46.4 -3.44,-0.35 -6.88,-1.06 -10.31,-1.06 z m -196.25,34.38 c 17.54,10.66 23.36,34.02 12.38,51.56 -67.03,109.61 -183.52,174.92 -311.72,174.92 -34.69,0 -69.06,-4.8 -102.38,-14.45 -19.92,-5.82 -31.29,-26.45 -25.43,-46.37 5.82,-19.96 26.79,-31.29 46.37,-25.43 26.13,7.54 53.63,11.68 81.13,11.68 102.07,0 194.49,-51.91 247.77,-139.18 7.23,-11.68 19.22,-17.89 31.95,-17.89 7.23,-0.35 14.11,1.37 19.93,5.16 z m 292.81,260.15 c 127.15,169.07 320.98,265.98 532.3,265.98 140.24,0 274.26,-42.93 387.66,-124.37 16.84,-12.04 40.19,-8.25 52.23,8.59 12.03,16.83 8.28,40.19 -8.6,52.23 -126.09,90.7 -275.58,138.47 -431.29,138.47 -118.55,0 -231.6,-27.15 -336.44,-80.74 -85.55,-43.63 -162.89,-104.8 -225.78,-178.01 -62.89,73.21 -140.2,134.38 -225.78,178.01 -104.81,53.59 -217.86,80.74 -336.45,80.74 -156.02,0 -305.16,-48.08 -431.29,-138.83 -16.83,-12.03 -20.58,-35.39 -8.55,-52.22 11.99,-16.84 35.39,-20.63 52.22,-8.6 113.4,81.45 247.42,124.73 387.62,124.73 211.37,0 405.2,-96.91 532.34,-265.98 7.23,-9.29 18.21,-15.11 29.89,-15.11 11.72,0 23.04,5.82 29.92,15.11 z m 72.85,-267.38 c 58.44,203.79 247.42,346.09 459.45,346.09 89.03,0 175.63,-24.41 250.9,-71.13 17.5,-11.01 40.55,-5.51 51.53,11.99 11.01,17.54 5.5,40.59 -12.04,51.57 -86.91,53.94 -187.26,82.15 -290.39,82.15 -122.34,0 -238.47,-39.18 -335.74,-113.4 -93.83,-71.84 -163.59,-173.56 -195.9,-286.96 -5.82,-19.96 5.86,-40.58 25.78,-46.4 3.44,-1.06 6.88,-1.37 10.32,-1.37 16.48,0.31 31.29,11.33 36.09,27.46 z m 211.68,19.61 c 53.28,86.95 146.05,139.18 247.77,139.18 27.85,0 55,-3.79 81.14,-11.68 19.92,-5.86 40.54,5.51 46.36,25.43 5.86,19.92 -5.47,40.55 -25.43,46.41 -32.96,9.61 -67.34,14.41 -102.38,14.41 -128.2,0 -244.69,-65.27 -311.72,-174.92 -10.66,-17.54 -5.15,-40.9 12.38,-51.56 6.18,-3.75 12.7,-5.47 19.58,-5.47 12.73,0.31 25.11,6.87 32.3,18.2 z"
           style="fill:url(#linearGradient4);fill-opacity:1;fill-rule:nonzero;stroke:none"
           transform="matrix(0.03527778,0,0,-0.03527778,-34.623507,199.44124)"
           clip-path="url(#clipPath4)" />
      </g>
      <g
         id="g1"
         transform="translate(14.838512,-36.303681)">
        <path
           id="path5"
           d="m 152.04106,91.894883 c 1.52965,1.6316 3.57893,2.67476 5.93655,2.67476 3.47133,0 6.09494,-2.46517 6.09494,-5.00764 0,-3.44675 -3.19264,-5.05217 -5.65256,-5.9877 -2.28212,-0.85446 -3.42018,-1.39738 -3.42018,-2.4088 0,-1.03752 0.77717,-1.89618 2.90195,-1.89618 1.4485,0 2.30681,0.44238 2.927,1.19486 0.28539,0.33479 0.72778,0.54292 1.19485,0.54292 0.85443,0 1.52965,-0.67133 1.52965,-1.52964 0,-0.38594 -0.13088,-0.75248 -0.39159,-1.01142 -1.13806,-1.29681 -2.82469,-2.30822 -5.25991,-2.30822 -3.71087,0 -6.0138,2.51601 -6.0138,5.00768 0,2.85115 2.45991,4.19735 5.44477,5.31107 2.20063,0.85975 3.62832,1.58048 3.62832,3.08543 0,0.98668 -0.96026,1.89053 -2.98344,1.89053 -1.5046,0 -2.66771,-0.56913 -3.68054,-1.68243 -0.28398,-0.31009 -0.70167,-0.49212 -1.14264,-0.49212 -0.85443,0 -1.55575,0.70128 -1.55575,1.5543 0,0.41769 0.15698,0.77858 0.44238,1.0626 z m 28.48963,-15.13628 -4.09681,5.39221 c -0.31009,0.41204 -0.82832,0.41204 -1.13841,0 l -4.09681,-5.39221 c -0.28399,-0.36653 -0.72637,-0.60078 -1.21955,-0.60078 -0.87948,0 -1.55611,0.70132 -1.55611,1.55575 0,0.36654 0.1076,0.70132 0.31574,0.96026 l 5.00098,6.61349 c 0.31009,0.41204 0.57044,1.21528 0.57044,1.73358 v 6.01762 c 0,0.85453 0.70132,1.55582 1.55434,1.55582 0.85442,0 1.55575,-0.70129 1.55575,-1.55582 v -6.01762 c 0,-0.5183 0.25929,-1.32154 0.56938,-1.73358 l 5.00627,-6.61349 c 0.20391,-0.25894 0.31009,-0.59372 0.31009,-0.96026 0,-0.85443 -0.67522,-1.55575 -1.55434,-1.55575 -0.49353,0 -0.93592,0.23425 -1.22096,0.60078 z m 11.27901,16.27992 v -2.46518 c 0,-0.51812 0.4385,-0.96061 0.95638,-0.96061 h 2.7245 c 3.60363,0 6.65868,-3.05499 6.65868,-6.65865 0,-3.62973 -3.05505,-6.66397 -6.65868,-6.66397 h -4.84928 c -1.06257,0 -1.94169,0.87912 -1.94169,1.91664 v 14.83177 c 0,0.85453 0.69603,1.55582 1.55575,1.55582 0.85302,0 1.55434,-0.70129 1.55434,-1.55582 z m 0,-7.49226 v -5.18403 c 0,-0.51824 0.4385,-0.96062 0.95638,-0.96062 h 2.7245 c 2.09868,0 3.54859,1.42346 3.54859,3.55247 0,2.09871 -1.44991,3.54852 -3.54859,3.54852 h -2.7245 c -0.51788,0 -0.95638,-0.43807 -0.95638,-0.95634 z m 18.84362,7.49226 v -2.46518 c 0,-0.51812 0.44204,-0.96061 0.96026,-0.96061 h 1.42346 c 0.51823,0 1.21956,0.3405 1.55611,0.75254 l 2.74884,3.60356 c 0.2854,0.36657 0.72778,0.60081 1.22097,0.60081 0.85301,0 1.55468,-0.70128 1.55468,-1.56143 0,-0.36092 -0.10618,-0.69564 -0.31009,-0.955 l -1.87007,-2.44048 c -0.31009,-0.38559 -0.20391,-0.98104 0.23424,-1.27028 1.68663,-1.18925 2.80035,-3.18742 2.80035,-5.38837 0,-3.60362 -3.03459,-6.63786 -6.63821,-6.63786 h -4.84505 c -1.06116,0 -1.94593,0.85301 -1.94593,1.91558 v 14.80672 c 0,0.85453 0.70133,1.55582 1.55434,1.55582 0.86007,0 1.5561,-0.70129 1.5561,-1.55582 z m 0,-7.49226 v -5.15934 c 0,-0.51823 0.44204,-0.96061 0.96026,-0.96061 h 2.72028 c 2.10431,0 3.52777,1.4291 3.52777,3.52777 0,2.12517 -1.42346,3.54852 -3.52777,3.54852 h -2.72028 c -0.51822,0 -0.96026,-0.43807 -0.96026,-0.95634 z m 26.49256,5.77963 h -6.70949 c -0.51822,0 -0.96061,-0.44249 -0.96061,-0.96062 v -2.48613 c 0,-0.51816 0.44239,-0.96022 0.96061,-0.96022 h 4.8948 c 0.85972,0 1.55575,-0.70168 1.55575,-1.55607 0,-0.85302 -0.69603,-1.5543 -1.55575,-1.5543 h -4.8948 c -0.51822,0 -0.96061,-0.44242 -0.96061,-0.96065 v -2.48567 c 0,-0.51824 0.44239,-0.96062 0.96061,-0.96062 h 6.70949 c 0.86007,0 1.55575,-0.70132 1.55575,-1.55575 0,-0.85443 -0.69568,-1.55575 -1.55575,-1.55575 h -8.83885 c -1.06221,0 -1.94134,0.87912 -1.94134,1.94169 v 14.25854 c 0,1.06782 0.87913,1.94701 1.94134,1.94701 h 8.83885 c 0.86007,0 1.55575,-0.70128 1.55575,-1.55578 0,-0.85439 -0.69568,-1.55568 -1.55575,-1.55568 z m 7.39034,0.56899 c 1.53105,1.6316 3.57893,2.67476 5.93795,2.67476 3.47134,0 6.08965,-2.46517 6.08965,-5.00764 0,-3.44675 -3.18734,-5.05217 -5.64726,-5.9877 -2.28318,-0.85446 -3.42583,-1.39738 -3.42583,-2.4088 0,-1.03752 0.77752,-1.89618 2.90654,-1.89618 1.44956,0 2.30258,0.44238 2.92805,1.19486 0.2854,0.33479 0.72778,0.54292 1.18957,0.54292 0.85972,0 1.52964,-0.67133 1.52964,-1.52964 0,-0.38594 -0.127,-0.75248 -0.38594,-1.01142 -1.1437,-1.29681 -2.82645,-2.30822 -5.26132,-2.30822 -3.70981,0 -6.01804,2.51601 -6.01804,5.00768 0,2.85115 2.46521,4.19735 5.44477,5.31107 2.20487,0.85975 3.62832,1.58048 3.62832,3.08543 0,0.98668 -0.95497,1.89053 -2.97815,1.89053 -1.50459,0 -2.66911,-0.56913 -3.68053,-1.68243 -0.28398,-0.31009 -0.70132,-0.49212 -1.1437,-0.49212 -0.85302,0 -1.5547,0.70128 -1.5547,1.5543 0,0.41769 0.15734,0.77858 0.44098,1.0626 z"
           style="fill:#1f44a0;fill-opacity:1;fill-rule:nonzero;stroke:none;stroke-width:0.0352777" />
        <path
           id="path6"
           d="m 109.74618,105.77309 c 0.54432,0.83936 1.38355,1.30641 2.29732,1.30641 1.05269,0 2.17167,-0.59408 2.17167,-1.72795 0,-1.23084 -1.14902,-1.41812 -2.06969,-1.62634 -0.86403,-0.2081 -1.44294,-0.36078 -1.44294,-1.07763 0,-0.60469 0.4163,-0.99631 1.30638,-0.99631 0.67523,0 1.09719,0.27972 1.40298,0.6562 0.055,0.0853 0.16259,0.14182 0.26458,0.14182 0.19293,0 0.34466,-0.15699 0.34466,-0.34576 0,-0.0871 -0.0251,-0.15737 -0.0758,-0.21939 -0.39687,-0.50271 -1.02126,-0.92467 -1.93641,-0.92467 -1.22067,0 -1.99816,0.73727 -1.99816,1.68811 0,1.24037 1.09292,1.54478 1.983,1.75285 0.93031,0.20962 1.52961,0.3102 1.52961,0.95112 0,0.68048 -0.64064,1.03753 -1.47987,1.03753 -0.70555,0 -1.29549,-0.32093 -1.71703,-0.98665 -0.062,-0.0964 -0.17349,-0.16264 -0.2949,-0.16264 -0.19293,0 -0.34603,0.15311 -0.34603,0.34605 0,0.066 0.0152,0.13613 0.0606,0.18725 z m 12.58147,-4.46744 v 1.34606 c 0,0.93596 -0.67659,1.6123 -1.60651,1.6123 -0.92467,0 -1.60126,-0.67634 -1.60126,-1.6123 v -1.34606 c 0,-0.1888 -0.15311,-0.34618 -0.34618,-0.34618 -0.18726,0 -0.34562,0.15738 -0.34562,0.34618 v 1.34606 c 0,1.14942 0.84875,2.11004 1.94691,2.27267 l 0.006,1.80908 c 0,0.18905 0.15696,0.34604 0.34576,0.34604 0.19294,0 0.34463,-0.15699 0.34463,-0.34604 l -0.004,-1.80908 c 1.10243,-0.16263 1.95132,-1.12325 1.95132,-2.27267 v -1.34606 c 0,-0.1888 -0.15695,-0.34618 -0.34575,-0.34618 -0.18729,0 -0.34467,0.15738 -0.34467,0.34618 z m 5.5965,5.46379 v -3.51264 c 0,-0.93031 0.67525,-1.60553 1.61079,-1.60553 0.92452,0 1.59593,0.67522 1.59593,1.60553 v 3.51264 c 0,0.18863 0.15846,0.346 0.34572,0.346 0.19293,0 0.34576,-0.15737 0.34576,-0.346 v -3.51264 c 0,-1.27067 -1.02662,-2.29733 -2.28741,-2.29733 -1.27039,0 -2.30255,1.02666 -2.30255,2.29733 v 3.51264 c 0,0.18863 0.15695,0.346 0.34562,0.346 0.19304,0 0.34614,-0.15737 0.34614,-0.346 z m 10.66299,-0.036 v -5.04624 h 1.50495 c 0.19308,0 0.34576,-0.15833 0.34576,-0.34601 0,-0.1888 -0.15268,-0.34576 -0.34576,-0.34576 h -3.70554 c -0.19294,0 -0.34576,0.15696 -0.34576,0.34576 0,0.18768 0.15282,0.34601 0.34576,0.34601 h 1.51021 v 5.04624 c 0,0.18905 0.15737,0.34604 0.34614,0.34604 0.19294,0 0.34424,-0.15699 0.34424,-0.34604 z m 6.76067,0 v -2.45428 h 3.02507 v 2.45428 c 0,0.18905 0.15275,0.34604 0.34572,0.34604 0.18733,0 0.34608,-0.15699 0.34608,-0.34604 v -5.42781 c 0,-0.1888 -0.15875,-0.34618 -0.34608,-0.34618 -0.19297,0 -0.34572,0.15738 -0.34572,0.34618 v 2.28202 h -3.02507 v -2.28202 c 0,-0.1888 -0.15699,-0.34618 -0.34572,-0.34618 -0.19297,0 -0.3447,0.15738 -0.3447,0.34618 v 5.42781 c 0,0.18905 0.15173,0.34604 0.3447,0.34604 0.18873,0 0.34572,-0.15699 0.34572,-0.34604 z m 8.27511,0.31005 h 3.01942 c 0.18874,0 0.34572,-0.15695 0.34572,-0.34438 0,-0.18863 -0.15698,-0.346 -0.34572,-0.346 h -2.67335 v -2.07395 h 2.32869 c 0.18768,0 0.34466,-0.15847 0.34466,-0.34575 0,-0.18881 -0.15698,-0.34576 -0.34466,-0.34576 h -2.32869 v -1.90045 h 2.67335 c 0.18874,0 0.34572,-0.15833 0.34572,-0.34601 0,-0.1888 -0.15698,-0.34576 -0.34572,-0.34576 h -3.01942 c -0.18733,0 -0.34431,0.15696 -0.34431,0.34576 v 5.35792 c 0,0.18743 0.15698,0.34438 0.34431,0.34438 z m 7.6401,-1.27042 c 0.54434,0.83936 1.3836,1.30641 2.29835,1.30641 1.05693,0 2.17064,-0.59408 2.17064,-1.72795 0,-1.23084 -1.14935,-1.41812 -2.06445,-1.62634 -0.86395,-0.2081 -1.44286,-0.36078 -1.44286,-1.07763 0,-0.60469 0.41063,-0.99631 1.30104,-0.99631 0.67522,0 1.0982,0.27972 1.40265,0.6562 0.0607,0.0853 0.16263,0.14182 0.26881,0.14182 0.18874,0 0.34572,-0.15699 0.34572,-0.34576 0,-0.0871 -0.0303,-0.15737 -0.0811,-0.21939 -0.39688,-0.50271 -1.01706,-0.92467 -1.93605,-0.92467 -1.21567,0 -1.99284,0.73727 -1.99284,1.68811 0,1.24037 1.08726,1.54478 1.97767,1.75285 0.93416,0.20962 1.52965,0.3102 1.52965,0.95112 0,0.68048 -0.641,1.03753 -1.47885,1.03753 -0.70696,0 -1.29681,-0.32093 -1.71838,-0.98665 -0.0607,-0.0964 -0.17357,-0.16264 -0.29492,-0.16264 -0.18874,0 -0.34572,0.15311 -0.34572,0.34605 0,0.066 0.0204,0.13613 0.0607,0.18725 z m 9.37895,0.96037 v -5.42781 c 0,-0.1888 -0.15733,-0.34618 -0.34607,-0.34618 -0.19297,0 -0.34572,0.15738 -0.34572,0.34618 v 5.42781 c 0,0.18905 0.15275,0.34604 0.34572,0.34604 0.18874,0 0.34607,-0.15699 0.34607,-0.34604 z m 4.27461,-0.96037 c 0.54434,0.83936 1.38219,1.30641 2.29694,1.30641 1.05728,0 2.17064,-0.59408 2.17064,-1.72795 0,-1.23084 -1.14794,-1.41812 -2.06304,-1.62634 -0.86396,-0.2081 -1.44427,-0.36078 -1.44427,-1.07763 0,-0.60469 0.41204,-0.99631 1.30104,-0.99631 0.67663,0 1.0982,0.27972 1.40264,0.6562 0.0621,0.0853 0.16404,0.14182 0.27023,0.14182 0.18733,0 0.34608,-0.15699 0.34608,-0.34576 0,-0.0871 -0.0303,-0.15737 -0.0815,-0.21939 -0.39688,-0.50271 -1.01706,-0.92467 -1.93746,-0.92467 -1.21391,0 -1.99284,0.73727 -1.99284,1.68811 0,1.24037 1.08867,1.54478 1.97767,1.75285 0.93557,0.20962 1.53105,0.3102 1.53105,0.95112 0,0.68048 -0.64099,1.03753 -1.48025,1.03753 -0.70556,0 -1.29505,-0.32093 -1.71838,-0.98665 -0.0603,-0.0964 -0.17216,-0.16264 -0.29351,-0.16264 -0.18874,0 -0.34572,0.15311 -0.34572,0.34605 0,0.066 0.0194,0.13613 0.0607,0.18725 z m 16.92628,0.61599 c -1.3462,0 -2.36326,-1.02235 -2.36326,-2.36884 0,-1.34757 1.01706,-2.36897 2.36326,-2.36897 1.35185,0 2.3689,1.0214 2.3689,2.36897 0,1.34649 -1.01705,2.36884 -2.3689,2.36884 z m -3.05505,-2.36884 c 0,1.68272 1.37265,3.05926 3.05505,3.05926 1.68804,0 3.0607,-1.37654 3.0607,-3.05926 0,-1.68811 -1.37266,-3.06077 -3.0607,-3.06077 -1.6824,0 -3.05505,1.37266 -3.05505,3.06077 z m 11.02571,2.71322 v -2.19509 h 2.3234 c 0.19296,0 0.34431,-0.15695 0.34431,-0.34601 0,-0.18729 -0.15135,-0.34576 -0.34431,-0.34576 h -2.3234 v -2.15938 h 2.66771 c 0.19438,0 0.34607,-0.15833 0.34607,-0.34601 0,-0.1888 -0.15169,-0.34576 -0.34607,-0.34576 h -3.01378 c -0.19262,0 -0.34573,0.15696 -0.34573,0.34576 v 5.39225 c 0,0.18905 0.15311,0.34604 0.34573,0.34604 0.18767,0 0.34607,-0.15699 0.34607,-0.34604 z m 13.10922,0 v -1.88489 h 1.64677 c 1.05692,0 1.93216,-0.86403 1.93216,-1.9364 0,-1.05269 -0.87524,-1.91672 -1.93216,-1.91672 h -1.99249 c -0.19297,0 -0.34607,0.15696 -0.34607,0.34576 v 5.39225 c 0,0.18905 0.1531,0.34604 0.34607,0.34604 0.18733,0 0.34572,-0.15699 0.34572,-0.34604 z m 0,-2.5768 v -2.46944 h 1.64677 c 0.72637,0 1.24037,0.50697 1.24037,1.22495 0,0.73586 -0.514,1.24449 -1.24037,1.24449 z m 7.85354,1.61643 c 0.54293,0.83936 1.38219,1.30641 2.29729,1.30641 1.05692,0 2.17029,-0.59408 2.17029,-1.72795 0,-1.23084 -1.14935,-1.41812 -2.06446,-1.62634 -0.86395,-0.2081 -1.44251,-0.36078 -1.44251,-1.07763 0,-0.60469 0.4117,-0.99631 1.3007,-0.99631 0.67663,0 1.09819,0.27972 1.40299,0.6562 0.0603,0.0853 0.16228,0.14182 0.26988,0.14182 0.18732,0 0.34466,-0.15699 0.34466,-0.34576 0,-0.0871 -0.0303,-0.15737 -0.0815,-0.21939 -0.39546,-0.50271 -1.01565,-0.92467 -1.93604,-0.92467 -1.21391,0 -1.99249,0.73727 -1.99249,1.68811 0,1.24037 1.08832,1.54478 1.97732,1.75285 0.93556,0.20962 1.52964,0.3102 1.52964,0.95112 0,0.68048 -0.63958,1.03753 -1.47849,1.03753 -0.70697,0 -1.29681,-0.32093 -1.71873,-0.98665 -0.0603,-0.0964 -0.17216,-0.16264 -0.29457,-0.16264 -0.18768,0 -0.34608,0.15311 -0.34608,0.34605 0,0.066 0.0208,0.13613 0.0621,0.18725 z m 12.58006,-4.46744 v 1.34606 c 0,0.93596 -0.67099,1.6123 -1.60691,1.6123 -0.92463,0 -1.59561,-0.67634 -1.59561,-1.6123 v -1.34606 c 0,-0.1888 -0.15699,-0.34618 -0.34608,-0.34618 -0.19261,0 -0.34431,0.15738 -0.34431,0.34618 v 1.34606 c 0,1.14942 0.84314,2.11004 1.94169,2.27267 l 0.01,1.80908 c 0,0.18905 0.1531,0.34604 0.34607,0.34604 0.18733,0 0.34572,-0.15699 0.34572,-0.34604 l -0.0109,-1.80908 c 1.10772,-0.16263 1.95262,-1.12325 1.95262,-2.27267 v -1.34606 c 0,-0.1888 -0.1531,-0.34618 -0.34607,-0.34618 -0.18874,0 -0.34573,0.15738 -0.34573,0.34618 z m 9.15987,4.59024 c -0.4064,0.31969 -0.87912,0.49319 -1.4485,0.49319 -1.35326,0 -2.36855,-1.02235 -2.36855,-2.36884 0,-1.34757 1.01529,-2.36897 2.36855,-2.36897 0.56938,0 1.0421,0.17251 1.4485,0.49361 0.0607,0.0493 0.13653,0.0758 0.21767,0.0758 0.18873,0 0.34607,-0.1531 0.34607,-0.346 0,-0.10199 -0.0512,-0.2026 -0.13264,-0.26458 -0.51788,-0.4064 -1.17405,-0.6506 -1.8796,-0.6506 -1.68804,0 -3.06035,1.37266 -3.06035,3.06077 0,1.68272 1.37231,3.05926 3.06035,3.05926 0.70555,0 1.36172,-0.24377 1.8796,-0.6506 0.0815,-0.0606 0.13264,-0.16259 0.13264,-0.26458 0,-0.1929 -0.15734,-0.34562 -0.34607,-0.34562 -0.0811,0 -0.15699,0.0261 -0.21767,0.0772 z m 5.46947,0.83757 v -2.45428 h 3.02471 v 2.45428 c 0,0.18905 0.15699,0.34604 0.34467,0.34604 0.19403,0 0.34572,-0.15699 0.34572,-0.34604 v -5.42781 c 0,-0.1888 -0.15169,-0.34618 -0.34572,-0.34618 -0.18768,0 -0.34467,0.15738 -0.34467,0.34618 v 2.28202 h -3.02471 v -2.28202 c 0,-0.1888 -0.15311,-0.34618 -0.34608,-0.34618 -0.18732,0 -0.34572,0.15738 -0.34572,0.34618 v 5.42781 c 0,0.18905 0.1584,0.34604 0.34572,0.34604 0.19297,0 0.34608,-0.15699 0.34608,-0.34604 z m 8.2804,0.31005 h 3.01378 c 0.19297,0 0.34607,-0.15695 0.34607,-0.34438 0,-0.18863 -0.1531,-0.346 -0.34607,-0.346 h -2.66912 v -2.07395 h 2.3234 c 0.19296,0 0.34572,-0.15847 0.34572,-0.34575 0,-0.18881 -0.15276,-0.34576 -0.34572,-0.34576 h -2.3234 v -1.90045 h 2.66912 c 0.19297,0 0.34607,-0.15833 0.34607,-0.34601 0,-0.1888 -0.1531,-0.34576 -0.34607,-0.34576 h -3.01378 c -0.18874,0 -0.34573,0.15696 -0.34573,0.34576 v 5.35792 c 0,0.18743 0.15699,0.34438 0.34573,0.34438 z m 7.57802,-0.34438 c 0,0.18743 0.15275,0.34438 0.34572,0.34438 h 1.2513 c 1.66617,0 3.02366,-1.35572 3.02366,-3.02327 0,-1.6673 -1.35749,-3.02479 -3.02366,-3.02479 h -1.2513 c -0.19297,0 -0.34572,0.15696 -0.34572,0.34576 z m 0.69179,-0.346 v -4.66591 h 0.90523 c 1.33138,0 2.33327,1.00058 2.33327,2.33302 0,1.33131 -1.00189,2.33289 -2.33327,2.33289 z m 8.49419,0.69038 h 3.01378 c 0.19297,0 0.34572,-0.15695 0.34572,-0.34438 0,-0.18863 -0.15275,-0.346 -0.34572,-0.346 h -2.66947 v -2.07395 h 2.32339 c 0.19297,0 0.34608,-0.15847 0.34608,-0.34575 0,-0.18881 -0.15311,-0.34576 -0.34608,-0.34576 h -2.32339 v -1.90045 h 2.66947 c 0.19297,0 0.34572,-0.15833 0.34572,-0.34601 0,-0.1888 -0.15275,-0.34576 -0.34572,-0.34576 h -3.01378 c -0.18874,0 -0.34608,0.15696 -0.34608,0.34576 v 5.35792 c 0,0.18743 0.15734,0.34438 0.34608,0.34438 z m 7.92374,0 h 3.01519 c 0.19297,0 0.34431,-0.15695 0.34431,-0.34438 0,-0.18863 -0.15134,-0.346 -0.34431,-0.346 h -2.66947 v -5.04748 c 0,-0.1888 -0.15699,-0.34618 -0.34572,-0.34618 -0.19297,0 -0.34608,0.15738 -0.34608,0.34618 v 5.39348 c 0,0.18743 0.15311,0.34438 0.34608,0.34438 z m 8.27087,-0.31005 v -5.42781 c 0,-0.1888 -0.15839,-0.34618 -0.34572,-0.34618 -0.19297,0 -0.34607,0.15738 -0.34607,0.34618 v 5.42781 c 0,0.18905 0.1531,0.34604 0.34607,0.34604 0.18733,0 0.34572,-0.15699 0.34572,-0.34604 z m 8.72702,-0.83757 c -0.4064,0.31969 -0.88441,0.49319 -1.4538,0.49319 -1.34761,0 -2.36855,-1.02235 -2.36855,-2.36884 0,-1.34757 1.02094,-2.36897 2.36855,-2.36897 0.56939,0 1.0474,0.17251 1.4538,0.49361 0.0607,0.0493 0.13794,0.0758 0.21378,0.0758 0.19297,0 0.34573,-0.1531 0.34573,-0.346 0,-0.10199 -0.0508,-0.2026 -0.12806,-0.26458 -0.51823,-0.4064 -1.17405,-0.6506 -1.88525,-0.6506 -1.6824,0 -3.06035,1.37266 -3.06035,3.06077 0,1.68272 1.37795,3.05926 3.06035,3.05926 0.7112,0 1.36702,-0.24377 1.88525,-0.6506 0.0773,-0.0606 0.12806,-0.16259 0.12806,-0.26458 0,-0.1929 -0.15276,-0.34562 -0.34573,-0.34562 -0.0758,0 -0.1531,0.0261 -0.21378,0.0772 z"
           style="fill:#1da373;fill-opacity:1;fill-rule:nonzero;stroke:none;stroke-width:0.0352777" />
        <path
           id="path7"
           d="m 142.09026,118.06259 v -1.8853 h 1.45948 l 1.31582,2.11942 c 0.055,0.0911 0.17216,0.15283 0.28928,0.15283 0.19297,0 0.34607,-0.14745 0.34607,-0.34575 0,-0.0663 -0.0152,-0.12664 -0.0511,-0.17777 l -1.13813,-1.83554 c 0.78288,-0.24943 1.35721,-0.9758 1.35721,-1.85072 0,-1.05156 -0.87489,-1.91559 -1.92617,-1.91559 h -1.99817 c -0.19293,0 -0.34604,0.1571 -0.34604,0.34615 v 5.39227 c 0,0.18865 0.15311,0.34561 0.34604,0.34561 0.18877,0 0.34576,-0.15696 0.34576,-0.34561 z m 0,-2.57707 v -2.47096 h 1.65241 c 0.72069,0 1.23472,0.50878 1.23472,1.2252 0,0.73741 -0.51403,1.24576 -1.23472,1.24576 z m 8.13717,2.88713 h 3.01519 c 0.19297,0 0.34608,-0.15738 0.34608,-0.34617 0,-0.18727 -0.15311,-0.34423 -0.34608,-0.34423 h -2.66911 v -2.07395 h 2.32868 c 0.18768,0 0.34043,-0.15847 0.34043,-0.34616 0,-0.18866 -0.15275,-0.34575 -0.34043,-0.34575 h -2.32868 v -1.90183 h 2.66911 c 0.19297,0 0.34608,-0.15695 0.34608,-0.34424 0,-0.18905 -0.15311,-0.34615 -0.34608,-0.34615 h -3.01519 c -0.18732,0 -0.34431,0.1571 -0.34431,0.34615 v 5.35616 c 0,0.18879 0.15699,0.34617 0.34431,0.34617 z m 7.64011,-1.2707 c 0.54433,0.83923 1.38324,1.30625 2.29835,1.30625 1.05692,0 2.17064,-0.59366 2.17064,-1.72792 0,-1.23045 -1.14935,-1.41814 -2.06446,-1.62624 -0.86395,-0.20916 -1.44286,-0.36089 -1.44286,-1.07735 0,-0.60509 0.41064,-0.99631 1.30105,-0.99631 0.67521,0 1.09819,0.27946 1.40264,0.65443 0.0607,0.0868 0.16263,0.14319 0.26882,0.14319 0.18873,0 0.34043,-0.15836 0.34043,-0.34561 0,-0.0868 -0.0247,-0.15737 -0.0759,-0.21911 -0.39688,-0.50313 -1.01706,-0.92467 -1.93604,-0.92467 -1.21568,0 -1.99285,0.73696 -1.99285,1.68808 0,1.23997 1.08726,1.5448 1.97768,1.7526 0.93415,0.20809 1.52964,0.31006 1.52964,0.95099 0,0.68089 -0.641,1.03614 -1.47884,1.03614 -0.70697,0 -1.29682,-0.31956 -1.71838,-0.98529 -0.0607,-0.0963 -0.17357,-0.16261 -0.29493,-0.16261 -0.18873,0 -0.34572,0.15172 -0.34572,0.34602 0,0.066 0.0152,0.13657 0.0607,0.18741 z m 9.02723,1.2707 h 3.01943 c 0.18873,0 0.34607,-0.15738 0.34607,-0.34617 0,-0.18727 -0.15734,-0.34423 -0.34607,-0.34423 h -2.67335 v -2.07395 h 2.32868 c 0.18768,0 0.34467,-0.15847 0.34467,-0.34616 0,-0.18866 -0.15699,-0.34575 -0.34467,-0.34575 h -2.32868 v -1.90183 h 2.67335 c 0.18873,0 0.34607,-0.15695 0.34607,-0.34424 0,-0.18905 -0.15734,-0.34615 -0.34607,-0.34615 h -3.01943 c -0.18732,0 -0.34431,0.1571 -0.34431,0.34615 v 5.35616 c 0,0.18879 0.15699,0.34617 0.34431,0.34617 z m 8.27123,-0.27451 v -1.62595 h 3.20675 v 1.62595 c 0,0.18879 0.1584,0.34602 0.34572,0.34602 0.18874,0 0.34608,-0.15723 0.34608,-0.34602 v -3.51263 c 0,-1.27028 -1.02694,-2.2969 -2.28777,-2.2969 -1.27035,0 -2.30258,1.02662 -2.30258,2.2969 v 3.51263 c 0,0.18879 0.15699,0.34602 0.34572,0.34602 0.19297,0 0.34608,-0.15723 0.34608,-0.34602 z m 0,-2.31772 v -1.19491 c 0,-0.92988 0.67521,-1.60513 1.61078,-1.60513 0.92075,0 1.59597,0.67525 1.59597,1.60513 v 1.19491 z m 8.80851,2.28217 v -1.8853 h 1.45908 l 1.31057,2.11942 c 0.0621,0.0911 0.17357,0.15283 0.29492,0.15283 0.19298,0 0.34573,-0.14745 0.34573,-0.34575 0,-0.0663 -0.0148,-0.12664 -0.0508,-0.17777 l -1.13842,-1.83554 c 0.78282,-0.24943 1.35185,-0.9758 1.35185,-1.85072 0,-1.05156 -0.86925,-1.91559 -1.92652,-1.91559 h -1.99249 c -0.19297,0 -0.34572,0.1571 -0.34572,0.34615 v 5.39227 c 0,0.18865 0.15275,0.34561 0.34572,0.34561 0.18874,0 0.34608,-0.15696 0.34608,-0.34561 z m 0,-2.57707 v -2.47096 h 1.64641 c 0.72778,0 1.23613,0.50878 1.23613,1.2252 0,0.73741 -0.50835,1.24576 -1.23613,1.24576 z m 12.21492,1.73922 c -0.40251,0.31957 -0.87947,0.49168 -1.4485,0.49168 -1.34761,0 -2.3689,-1.02085 -2.3689,-2.36747 0,-1.34757 1.02129,-2.36857 2.3689,-2.36857 0.56903,0 1.04599,0.17212 1.4485,0.49184 0.0603,0.0511 0.14182,0.0772 0.21767,0.0772 0.18873,0 0.34572,-0.15311 0.34572,-0.346 0,-0.10199 -0.0508,-0.20398 -0.13229,-0.26459 -0.51823,-0.4064 -1.17405,-0.65017 -1.8796,-0.65017 -1.68804,0 -3.0607,1.37224 -3.0607,3.06034 0,1.68135 1.37266,3.05925 3.0607,3.05925 0.70555,0 1.36137,-0.24378 1.8796,-0.65043 0.0815,-0.0604 0.13229,-0.16234 0.13229,-0.26459 0,-0.19265 -0.15699,-0.34575 -0.34572,-0.34575 -0.0759,0 -0.15734,0.026 -0.21767,0.0773 z m 5.47335,0.83785 v -2.45429 h 3.02472 v 2.45429 c 0,0.18865 0.15311,0.34561 0.34607,0.34561 0.18874,0 0.34573,-0.15696 0.34573,-0.34561 v -5.42822 c 0,-0.18881 -0.15699,-0.34576 -0.34573,-0.34576 -0.19296,0 -0.34607,0.15695 -0.34607,0.34576 v 2.28202 h -3.02472 v -2.28202 c 0,-0.18881 -0.15698,-0.34576 -0.34431,-0.34576 -0.19438,0 -0.34607,0.15695 -0.34607,0.34576 v 5.42822 c 0,0.18865 0.15169,0.34561 0.34607,0.34561 0.18733,0 0.34431,-0.15696 0.34431,-0.34561 z m 13.17555,-0.96064 c 0.54433,0.83923 1.38359,1.30625 2.29834,1.30625 1.05728,0 2.17065,-0.59366 2.17065,-1.72792 0,-1.23045 -1.14935,-1.41814 -2.06446,-1.62624 -0.86395,-0.20916 -1.44286,-0.36089 -1.44286,-1.07735 0,-0.60509 0.41063,-0.99631 1.30528,-0.99631 0.67098,0 1.09396,0.27946 1.39841,0.65443 0.0607,0.0868 0.16263,0.14319 0.26882,0.14319 0.18873,0 0.34607,-0.15836 0.34607,-0.34561 0,-0.0868 -0.0303,-0.15737 -0.0815,-0.21911 -0.39688,-0.50313 -1.01706,-0.92467 -1.93181,-0.92467 -1.21956,0 -1.99708,0.73696 -1.99708,1.68808 0,1.23997 1.08726,1.5448 1.97767,1.7526 0.93416,0.20809 1.52965,0.31006 1.52965,0.95099 0,0.68089 -0.641,1.03614 -1.47885,1.03614 -0.70661,0 -1.29645,-0.31956 -1.71838,-0.98529 -0.0607,-0.0963 -0.17356,-0.16261 -0.29492,-0.16261 -0.18874,0 -0.34572,0.15172 -0.34572,0.34602 0,0.066 0.0208,0.13657 0.0607,0.18741 z m 10.88778,0.96064 v -5.04803 h 1.50495 c 0.18873,0 0.34572,-0.15695 0.34572,-0.34424 0,-0.18905 -0.15699,-0.34615 -0.34572,-0.34615 h -3.70558 c -0.19297,0 -0.34608,0.1571 -0.34608,0.34615 0,0.18729 0.15311,0.34424 0.34608,0.34424 h 1.51024 v 5.04803 c 0,0.18865 0.15699,0.34561 0.34607,0.34561 0.18733,0 0.34432,-0.15696 0.34432,-0.34561 z m 9.96315,-5.42822 v 3.50696 c 0,0.93582 -0.67099,1.61106 -1.59562,1.61106 -0.93592,0 -1.6069,-0.67524 -1.6069,-1.61106 v -3.50696 c 0,-0.18881 -0.15699,-0.34576 -0.34572,-0.34576 -0.19297,0 -0.34467,0.15695 -0.34467,0.34576 v 3.50696 c 0,1.27068 1.02659,2.30283 2.29729,2.30283 1.26083,0 2.28741,-1.03215 2.28741,-2.30283 v -3.50696 c 0,-0.18881 -0.15275,-0.34576 -0.34572,-0.34576 -0.18874,0 -0.34607,0.15695 -0.34607,0.34576 z m 4.90996,5.39211 c 0,0.18879 0.1531,0.34617 0.34607,0.34617 h 1.24989 c 1.66723,0 3.02472,-1.35751 3.02472,-3.0237 0,-1.66729 -1.35749,-3.02478 -3.02472,-3.02478 h -1.24989 c -0.19297,0 -0.34607,0.1571 -0.34607,0.34615 z m 0.6918,-0.34423 v -4.66769 h 0.90416 c 1.33245,0 2.33434,1.00196 2.33434,2.33439 0,1.33133 -1.00189,2.3333 -2.33434,2.3333 z m 8.83884,0.38034 v -5.42822 c 0,-0.18881 -0.15698,-0.34576 -0.34466,-0.34576 -0.18874,0 -0.34572,0.15695 -0.34572,0.34576 v 5.42822 c 0,0.18865 0.15698,0.34561 0.34572,0.34561 0.18768,0 0.34466,-0.15696 0.34466,-0.34561 z m 4.5653,0.31006 h 3.01378 c 0.18874,0 0.34607,-0.15738 0.34607,-0.34617 0,-0.18727 -0.15733,-0.34423 -0.34607,-0.34423 h -2.66771 v -2.07395 h 2.32199 c 0.18873,0 0.34572,-0.15847 0.34572,-0.34616 0,-0.18866 -0.15699,-0.34575 -0.34572,-0.34575 h -2.32199 v -1.90183 h 2.66771 c 0.18874,0 0.34607,-0.15695 0.34607,-0.34424 0,-0.18905 -0.15733,-0.34615 -0.34607,-0.34615 h -3.01378 c -0.19297,0 -0.34572,0.1571 -0.34572,0.34615 v 5.35616 c 0,0.18879 0.15275,0.34617 0.34572,0.34617 z m 7.63446,-1.2707 c 0.54434,0.83923 1.38218,1.30625 2.30258,1.30625 1.05304,0 2.165,-0.59366 2.165,-1.72792 0,-1.23045 -1.14794,-1.41814 -2.06305,-1.62624 -0.86395,-0.20916 -1.44391,-0.36089 -1.44391,-1.07735 0,-0.60509 0.41733,-0.99631 1.30633,-0.99631 0.67098,0 1.0982,0.27946 1.39877,0.65443 0.0603,0.0868 0.16227,0.14319 0.26846,0.14319 0.18874,0 0.34608,-0.15836 0.34608,-0.34561 0,-0.0868 -0.0265,-0.15737 -0.0759,-0.21911 -0.40252,-0.50313 -1.0227,-0.92467 -1.93746,-0.92467 -1.21955,0 -1.99672,0.73696 -1.99672,1.68808 0,1.23997 1.08726,1.5448 1.97591,1.7526 0.93557,0.20809 1.53105,0.31006 1.53105,0.95099 0,0.68089 -0.64064,1.03614 -1.47461,1.03614 -0.71085,0 -1.29681,-0.31956 -1.72261,-0.98529 -0.0617,-0.0963 -0.17357,-0.16261 -0.29492,-0.16261 -0.18874,0 -0.34573,0.15172 -0.34573,0.34602 0,0.066 0.0208,0.13657 0.0607,0.18741 z"
           style="fill:#1da373;fill-opacity:1;fill-rule:nonzero;stroke:none;stroke-width:0.0352777" />
      </g>
    </g>
  </g>
</svg>
