<?xml version="1.0" encoding="UTF-8" standalone="no"?>
<!-- Created with Inkscape (http://www.inkscape.org/) -->

<svg
   width="293mm"
   height="99mm"
   viewBox="0 0 293 99"
   version="1.1"
   id="svg1"
   inkscape:version="1.4 (e7c3feb1, 2024-10-09)"
   sodipodi:docname="sypres_logo_horizontal2.svg"
   inkscape:export-filename="sypres_logo_horizontal.png"
   inkscape:export-xdpi="96"
   inkscape:export-ydpi="96"
   xmlns:inkscape="http://www.inkscape.org/namespaces/inkscape"
   xmlns:sodipodi="http://sodipodi.sourceforge.net/DTD/sodipodi-0.dtd"
   xmlns="http://www.w3.org/2000/svg"
   xmlns:svg="http://www.w3.org/2000/svg">
  <sodipodi:namedview
     id="namedview1"
     pagecolor="#ffffff"
     bordercolor="#000000"
     borderopacity="0.25"
     inkscape:showpageshadow="2"
     inkscape:pageopacity="0.0"
     inkscape:pagecheckerboard="0"
     inkscape:deskcolor="#d1d1d1"
     inkscape:document-units="mm"
     inkscape:zoom="0.38749597"
     inkscape:cx="570.32851"
     inkscape:cy="918.71923"
     inkscape:window-width="1200"
     inkscape:window-height="1051"
     inkscape:window-x="292"
     inkscape:window-y="38"
     inkscape:window-maximized="0"
     inkscape:current-layer="g3" />
  <defs
     id="defs1">
    <linearGradient
       x1="0"
       y1="0"
       x2="0"
       y2="185"
       gradientUnits="userSpaceOnUse"
       gradientTransform="matrix(3.43658,0,0,-3.43658,1671.43,2114.5)"
       spreadMethod="pad"
       id="linearGradient4">
      <stop
         style="stop-opacity:1;stop-color:#f84d9e"
         offset="0"
         id="stop3" />
      <stop
         style="stop-opacity:1;stop-color:#ff7475"
         offset="1"
         id="stop4" />
    </linearGradient>
    <clipPath
       clipPathUnits="userSpaceOnUse"
       id="clipPath4">
      <path
         d="m 2613.91,1479.06 c -16.18,0 -31.29,10.67 -36.1,27.15 -58.43,203.79 -247.42,346.09 -459.49,346.09 -88.98,0 -175.59,-24.41 -250.86,-71.13 -17.5,-11.01 -40.55,-5.51 -51.52,11.99 -11.02,17.54 -5.51,40.59 11.99,51.57 86.95,53.94 187.3,82.15 290.39,82.15 122.34,0 238.52,-39.18 335.78,-113.4 93.83,-71.84 163.56,-173.56 195.86,-286.96 5.86,-19.96 -5.82,-40.58 -25.74,-46.4 -3.44,-0.35 -6.88,-1.06 -10.31,-1.06 z m -196.25,34.38 c 17.54,10.66 23.36,34.02 12.38,51.56 -67.03,109.61 -183.52,174.92 -311.72,174.92 -34.69,0 -69.06,-4.8 -102.38,-14.45 -19.92,-5.82 -31.29,-26.45 -25.43,-46.37 5.82,-19.96 26.79,-31.29 46.37,-25.43 26.13,7.54 53.63,11.68 81.13,11.68 102.07,0 194.49,-51.91 247.77,-139.18 7.23,-11.68 19.22,-17.89 31.95,-17.89 7.23,-0.35 14.11,1.37 19.93,5.16 z m 292.81,260.15 c 127.15,169.07 320.98,265.98 532.3,265.98 140.24,0 274.26,-42.93 387.66,-124.37 16.84,-12.04 40.19,-8.25 52.23,8.59 12.03,16.83 8.28,40.19 -8.6,52.23 -126.09,90.7 -275.58,138.47 -431.29,138.47 -118.55,0 -231.6,-27.15 -336.44,-80.74 -85.55,-43.63 -162.89,-104.8 -225.78,-178.01 -62.89,73.21 -140.2,134.38 -225.78,178.01 -104.81,53.59 -217.86,80.74 -336.45,80.74 -156.02,0 -305.16,-48.08 -431.29,-138.83 -16.83,-12.03 -20.58,-35.39 -8.55,-52.22 11.99,-16.84 35.39,-20.63 52.22,-8.6 113.4,81.45 247.42,124.73 387.62,124.73 211.37,0 405.2,-96.91 532.34,-265.98 7.23,-9.29 18.21,-15.11 29.89,-15.11 11.72,0 23.04,5.82 29.92,15.11 z m 72.85,-267.38 c 58.44,203.79 247.42,346.09 459.45,346.09 89.03,0 175.63,-24.41 250.9,-71.13 17.5,-11.01 40.55,-5.51 51.53,11.99 11.01,17.54 5.5,40.59 -12.04,51.57 -86.91,53.94 -187.26,82.15 -290.39,82.15 -122.34,0 -238.47,-39.18 -335.74,-113.4 -93.83,-71.84 -163.59,-173.56 -195.9,-286.96 -5.82,-19.96 5.86,-40.58 25.78,-46.4 3.44,-1.06 6.88,-1.37 10.32,-1.37 16.48,0.31 31.29,11.33 36.09,27.46 z m 211.68,19.61 c 53.28,86.95 146.05,139.18 247.77,139.18 27.85,0 55,-3.79 81.14,-11.68 19.92,-5.86 40.54,5.51 46.36,25.43 5.86,19.92 -5.47,40.55 -25.43,46.41 -32.96,9.61 -67.34,14.41 -102.38,14.41 -128.2,0 -244.69,-65.27 -311.72,-174.92 -10.66,-17.54 -5.15,-40.9 12.38,-51.56 6.18,-3.75 12.7,-5.47 19.58,-5.47 12.73,0.31 25.11,6.87 32.3,18.2 z"
         transform="translate(0,2.5e-5)"
         id="path4" />
    </clipPath>
  </defs>
  <g
     inkscape:label="Layer 1"
     inkscape:groupmode="layer"
     id="layer1">
    <g
       id="g3"
       transform="translate(-21.538089,-11.5)">
      <g
         id="g2"
         transform="translate(9.5592392,-39.030634)">
        <path
           id="path1"
           d="m 50.278813,90.621647 c -0.545748,-0.485069 -1.382184,-0.436738 -1.867252,0.109008 -1.030817,1.164521 -1.842558,2.460979 -2.400655,3.868208 -0.363712,0.920398 -0.61877,1.865842 -0.775758,2.848327 -0.436737,-0.217662 -0.884767,-0.424392 -1.333852,-0.606425 -0.351366,-0.144637 -0.715433,-0.278342 -1.0668,-0.399695 -1.164166,-0.399699 -2.364668,-0.691799 -3.588102,-0.87348 -0.02506,-0.04833 -0.04833,-0.109008 -0.07302,-0.157337 -1.564216,-3.502731 -5.225698,-5.746398 -9.3599,-5.746398 -0.04798,0 -0.08396,0 -0.132292,0 -0.727426,0.01236 -1.310568,0.606425 -1.310568,1.334206 0.0127,0.727427 0.594077,1.308807 1.321504,1.308807 h 0.0127 c 2.630664,-0.02469 5.007681,1.127477 6.377516,3.018012 -4.23192,-0.01093 -8.632118,1.176866 -12.730337,3.504493 -1.867254,-1.114777 -3.503083,-2.522008 -4.861631,-4.207227 0.242358,-0.884766 0.631119,-1.685218 1.151819,-2.375603 0.388762,-0.521055 0.861483,-0.98284 1.394531,-1.394532 0.581731,-0.437091 0.703085,-1.273527 0.255058,-1.854906 -0.43674,-0.581729 -1.273175,-0.702733 -1.854906,-0.255058 -0.727427,0.558096 -1.382183,1.20015 -1.916642,1.915583 -0.301977,0.412046 -0.581729,0.848783 -0.811741,1.297871 -0.351367,-0.643467 -0.667102,-1.297871 -0.945444,-1.964973 -0.279752,-0.67804 -1.05551,-0.993423 -1.721202,-0.726017 -0.67945,0.278342 -0.994833,1.041752 -0.727429,1.72085 0.654404,1.612548 1.514475,3.139369 2.545292,4.546246 0.04798,0.07303 0.09772,0.133704 0.158398,0.206729 1.369835,1.81751 3.005314,3.381727 4.872566,4.654904 -2.873023,2.02459 -5.382683,4.54625 -7.479948,7.52828 -0.424391,0.59407 -0.278341,1.41957 0.315738,1.84255 0.23001,0.1584 0.497417,0.24236 0.76341,0.24236 0.412044,0 0.82409,-0.19261 1.078794,-0.55668 2.133248,-3.03177 4.836937,-5.62504 7.844014,-7.56532 2.812344,1.39453 5.57671,2.02424 7.735007,2.29164 -0.06068,0.0607 -0.121357,0.12136 -0.182034,0.19297 -0.01236,0.0124 -0.01236,0.0124 -0.02469,0.0247 -0.690385,0.74013 -1.309158,1.52824 -1.83021,2.32763 -1.417815,-0.38735 -2.860675,-0.39969 -4.255206,-0.0236 -4.570942,1.22379 -5.843059,5.69842 -5.8928,5.89139 -0.192617,0.70414 0.219429,1.43016 0.922163,1.62454 0.121001,0.0374 0.23001,0.0483 0.351366,0.0483 0.581377,0 1.116187,-0.38735 1.273175,-0.96872 0.03598,-0.13371 0.933096,-3.20111 4.025194,-4.0379 0.751065,-0.20637 1.526823,-0.24236 2.290585,-0.10865 -0.2413,0.59372 -0.448027,1.20015 -0.605012,1.80657 -0.59408,2.2793 -0.59408,4.71558 -0.01236,7.24994 0.14464,0.60501 0.690385,1.01811 1.28411,1.01811 0.09807,0 0.20673,-0.0124 0.30339,-0.037 0.715081,-0.16933 1.151818,-0.87242 0.982485,-1.5875 -0.485069,-2.10961 -0.497417,-4.12185 -0.01236,-5.97782 0.242358,-0.9084 0.593725,-1.80516 1.066445,-2.6543 0.363715,-0.6544 0.800455,-1.30915 1.298223,-1.92793 0.897115,0.72778 1.49084,1.72121 1.648177,2.80035 0.303038,2.03659 -1.030816,3.56482 -1.309158,3.85587 -0.497769,0.53304 -0.485069,1.36948 0.04798,1.86725 0.255058,0.24236 0.581729,0.36371 0.90946,0.36371 0.351719,0 0.703085,-0.1337 0.957792,-0.41204 0.424392,-0.44944 2.486025,-2.81411 2.000956,-6.06214 -0.255058,-1.66193 -1.128538,-3.18876 -2.437696,-4.31588 0.401108,-0.35137 0.813155,-0.6918 1.26083,-1.00612 0.836435,-0.61877 1.758595,-1.18922 2.752018,-1.70992 0.401109,1.32151 0.654402,2.66771 0.764824,4.0252 0.08396,1.01847 0.08396,2.06022 0,3.09104 -0.06068,0.72742 0.483658,1.36948 1.211437,1.41922 0.03704,0 0.07302,0 0.110066,0 0.67804,0 1.259417,-0.52211 1.320094,-1.21285 0.09807,-1.17651 0.09807,-2.35232 0,-3.51507 -0.132292,-1.67429 -0.460021,-3.32247 -0.968727,-4.92267 0.727781,-0.29068 1.478844,-0.54539 2.254602,-0.7881 0.581379,-0.18203 1.187804,-0.33902 1.794229,-0.47272 0.399696,0.21766 0.800452,0.44802 1.20015,0.70273 0.01236,0.0127 0.02469,0.0127 0.03598,0.0251 0.02468,0.0109 0.04939,0.0233 0.07302,0.0356 0.01236,0.0127 0.03704,0.0127 0.04798,0.0251 0.02506,0.0109 0.04974,0.0233 0.07303,0.0233 0.02506,0.0124 0.03739,0.0124 0.06068,0.0247 0.02506,0.0127 0.0374,0.0127 0.06068,0.0236 0.02469,0.0124 0.04833,0.0124 0.07302,0.0124 0.02469,0 0.03598,0.0124 0.06068,0.0124 0.02469,0 0.04833,0.0124 0.07302,0.0124 0.01236,0 0.03598,0 0.04833,0 0.02328,0 0.06068,0 0.08396,0 0.01236,0 0.02469,0 0.03739,0 h 0.01236 c 0,0 0,0 0.01093,0 0.03704,0 0.06068,0 0.08537,0 0.01236,0 0.02468,0 0.04833,0 0.02469,0 0.04833,-0.0124 0.07303,-0.0124 0.02469,0 0.03563,0 0.06068,-0.0124 0.01236,0 0.02469,-0.0124 0.03563,-0.0124 0.09807,-0.0236 0.182034,-0.0607 0.279752,-0.0967 0.133702,-0.0607 0.24271,-0.14605 0.351367,-0.2547 0.0127,-0.0124 0.03598,-0.036 0.04833,-0.0607 0.01236,-0.0124 0.02469,-0.0236 0.03598,-0.0483 0.01236,-0.0124 0.02469,-0.0247 0.03704,-0.0356 0.01236,-0.0251 0.03598,-0.0497 0.04833,-0.0607 0,0 0,0 0,-0.0127 0.01236,-0.0124 0.01236,-0.0247 0.02469,-0.037 0.01093,-0.0233 0.02363,-0.0483 0.03598,-0.0716 0.01236,-0.0124 0.01236,-0.0374 0.02469,-0.0483 0.01093,-0.0247 0.02328,-0.0494 0.03598,-0.073 0.01236,-0.0247 0.01236,-0.037 0.02469,-0.0607 0.01093,-0.0247 0.01093,-0.037 0.02328,-0.06068 0.01236,-0.02469 0.01236,-0.04798 0.01236,-0.07303 0,-0.02469 0.0127,-0.03563 0.0127,-0.06033 0,-0.02506 0.01236,-0.04833 0.01236,-0.08572 0,-0.01093 0,-0.03563 0,-0.04798 0,-0.03598 0,-0.06068 0,-0.09666 0,-0.01236 0,-0.02469 0,-0.03704 -0.01236,-1.418166 0.23001,-2.775656 0.738717,-4.036483 0.449085,-1.116187 1.091141,-2.157941 1.915229,-3.092095 0.522464,-0.508707 0.472723,-1.345142 -0.08396,-1.830213 z m -12.232921,7.456664 c 0.07302,0.01093 0.157338,0.02328 0.242711,0.02328 0.727427,0.08537 1.43016,0.206726 2.133245,0.376412 -0.751062,0.265996 -1.466495,0.558096 -2.170639,0.872066 -1.514475,0.679451 -2.921355,1.480261 -4.182182,2.377371 -1.539523,-0.0127 -4.497916,-0.23177 -7.71031,-1.4679 3.85586,-1.829862 7.891992,-2.569992 11.687175,-2.181229 z m 68.388088,9.843209 c -2.09762,-2.98203 -4.60693,-5.50369 -7.479949,-7.52828 1.867249,-1.273177 3.504139,-2.837394 4.873979,-4.654904 0.0483,-0.07303 0.10901,-0.133704 0.14464,-0.206729 1.03081,-1.406877 1.89194,-2.933698 2.5467,-4.546246 0.27834,-0.679098 -0.0483,-1.442508 -0.72778,-1.72085 -0.6791,-0.279752 -1.44251,0.04798 -1.7212,0.726017 -0.27835,0.667102 -0.59373,1.333852 -0.9451,1.964973 -0.24271,-0.461433 -0.51011,-0.885825 -0.81315,-1.297871 -0.5334,-0.715433 -1.1878,-1.369835 -1.91558,-1.915583 -0.581378,-0.435327 -1.405468,-0.326671 -1.854553,0.255058 -0.437091,0.581379 -0.326673,1.406879 0.254704,1.854906 0.5334,0.399344 1.006123,0.873477 1.394529,1.394532 0.52105,0.690385 0.9084,1.490837 1.15076,2.375603 -1.357484,1.685219 -2.982026,3.103386 -4.860216,4.207227 -4.098218,-2.327627 -8.499827,-3.515428 -12.730339,-3.504493 1.357137,-1.878187 3.684764,-3.018012 6.279798,-3.018012 0.03704,0 0.07303,0 0.09772,0 0.726371,0 1.332442,-0.58138 1.332442,-1.308807 0.01236,-0.727781 -0.581377,-1.334206 -1.309159,-1.334206 -4.182178,-0.04798 -7.904337,2.206273 -9.491837,5.746398 -0.02468,0.04833 -0.04974,0.109008 -0.07302,0.157337 -1.225198,0.181681 -2.425348,0.473781 -3.576108,0.87348 -0.352779,0.121353 -0.716492,0.255058 -1.067858,0.399695 -0.44803,0.182033 -0.884767,0.388763 -1.332442,0.606425 -0.14605,-0.982485 -0.401108,-1.940277 -0.77611,-2.848327 -0.558096,-1.407229 -1.370896,-2.703687 -2.4003,-3.868208 -0.485071,-0.545746 -1.321506,-0.594077 -1.867255,-0.109008 -0.545745,0.485071 -0.594076,1.321506 -0.109008,1.867254 0.82409,0.933096 1.478846,1.97626 1.915583,3.091037 0.508355,1.260827 0.751065,2.618317 0.738717,4.037542 0,0.01236 0,0.02363 0,0.03598 0,0.03704 0,0.06068 0,0.09772 0,0.01093 0,0.03598 0,0.04833 0,0.02328 0.01236,0.04833 0.01236,0.08396 0,0.02469 0.01236,0.0374 0.01236,0.06068 0,0.02469 0.01236,0.04974 0.01236,0.07303 0.01093,0.0247 0.01093,0.037 0.02328,0.0607 0.0127,0.0247 0.0127,0.037 0.02506,0.0607 0.01236,0.0247 0.02328,0.048 0.03563,0.073 0.0127,0.0124 0.0127,0.0356 0.02506,0.048 0.01236,0.0251 0.02328,0.0483 0.03563,0.073 0.01236,0.0127 0.01236,0.0236 0.02506,0.036 0,0 0,0 0,0.0124 0.01236,0.0251 0.03563,0.0483 0.04798,0.0607 0.01236,0.0124 0.02506,0.0247 0.03598,0.036 0.01236,0.0124 0.02468,0.0247 0.03704,0.0494 0.01236,0.0236 0.03598,0.036 0.04833,0.0607 0.09631,0.0967 0.206727,0.18203 0.328083,0.24271 0.09631,0.048 0.205317,0.0963 0.326319,0.121 h 0.0127 c 0.02328,0 0.04798,0.0113 0.07303,0.0113 0.02328,0 0.03563,0.0124 0.06068,0.0124 0.01093,0 0.03563,0 0.04798,0 0.02363,0 0.04833,0 0.08431,0 h 0.01236 0.01236 c 0.01236,0 0.02469,0 0.03563,0 0.02506,0 0.04974,0 0.07303,0 0.02506,0 0.0374,0 0.06068,-0.0124 0.02506,0 0.04833,-0.0113 0.07303,-0.0113 0.02506,0 0.03598,-0.0124 0.06068,-0.0124 0.02506,0 0.03598,-0.0124 0.06068,-0.0124 0.02468,-0.0124 0.04833,-0.0124 0.07303,-0.0247 0.01236,-0.0109 0.03598,-0.0109 0.04833,-0.0236 0.02469,-0.0124 0.04833,-0.0247 0.07303,-0.037 0.01236,-0.0109 0.03563,-0.0109 0.04833,-0.0233 0.02328,-0.0127 0.04798,-0.0251 0.07302,-0.0374 0.01093,-0.0109 0.02328,-0.0109 0.03563,-0.0233 0.399698,-0.25506 0.800807,-0.48507 1.200502,-0.70308 0.606073,0.14499 1.212498,0.30197 1.793875,0.47272 0.776113,0.23036 1.528588,0.49636 2.254605,0.77576 -0.508355,1.6002 -0.836438,3.24838 -0.96873,4.92266 -0.09772,1.16275 -0.09772,2.33856 0,3.51508 0.06068,0.69074 0.629708,1.21285 1.321506,1.21285 0.03598,0 0.07162,0 0.109009,0 0.727427,-0.0607 1.273175,-0.6918 1.212498,-1.41923 -0.08537,-1.03082 -0.08537,-2.07257 0,-3.09104 0.109008,-1.35749 0.362654,-2.71603 0.76341,-4.02519 0.981427,0.5207 1.903235,1.09114 2.752019,1.70991 0.436739,0.32667 0.860073,0.65476 1.248481,1.00612 -1.309158,1.12713 -2.182635,2.65395 -2.436283,4.31589 -0.485069,3.24802 1.575152,5.62539 1.999543,6.06213 0.254707,0.27834 0.606425,0.41205 0.957792,0.41205 0.327731,0 0.654404,-0.12136 0.909463,-0.36372 0.533045,-0.49777 0.558093,-1.33421 0.04833,-1.86725 -0.265994,-0.29104 -1.612546,-1.81928 -1.309159,-3.85586 0.158398,-1.07915 0.763413,-2.07257 1.649238,-2.80035 0.496358,0.61877 0.933096,1.26118 1.29681,1.92793 0.472723,0.84913 0.82409,1.7459 1.0668,2.6543 0.485069,1.85596 0.485069,3.86821 -0.0127,5.97782 -0.169333,0.71508 0.279752,1.41816 0.98284,1.5875 0.09631,0.0247 0.206727,0.037 0.303035,0.037 0.606425,0 1.139473,-0.41311 1.284465,-1.01812 0.595135,-2.53435 0.582787,-4.97064 -0.0113,-7.24993 -0.158398,-0.60643 -0.363714,-1.21285 -0.606073,-1.80658 0.763413,-0.1337 1.539171,-0.0977 2.291646,0.10866 3.090686,0.82408 3.9878,3.90419 4.023784,4.03789 0.158395,0.58138 0.691795,0.96873 1.273175,0.96873 0.121353,0 0.230362,-0.0109 0.351366,-0.0483 0.704143,-0.19439 1.116183,-0.9204 0.922163,-1.62455 -0.0483,-0.19297 -1.321509,-4.6676 -5.89245,-5.89139 -1.393471,-0.37606 -2.848679,-0.36371 -4.255559,0.0236 -0.521052,-0.81174 -1.13947,-1.5875 -1.829858,-2.32762 -0.0127,-0.0124 -0.0127,-0.0124 -0.02506,-0.0247 0,0 0,0 -0.01236,-0.0109 -0.06068,-0.0607 -0.121357,-0.12136 -0.182033,-0.19438 2.158293,-0.27834 4.92266,-0.89712 7.735006,-2.29165 3.019425,1.94028 5.723114,4.53355 7.844014,7.56532 0.2547,0.36372 0.66675,0.5581 1.07879,0.5581 0.26741,0 0.53481,-0.073 0.76482,-0.24236 0.65476,-0.41204 0.7994,-1.23754 0.37501,-1.83162 z m -12.910964,-7.64928 c -3.212042,1.23613 -6.158442,1.45521 -7.709958,1.46614 -1.261179,-0.89711 -2.668058,-1.69651 -4.183944,-2.375959 -0.702733,-0.315383 -1.417814,-0.606073 -2.168877,-0.872066 0.702734,-0.171098 1.405467,-0.2921 2.133246,-0.376415 0.08537,0 0.169333,-0.01236 0.242358,-0.02469 3.795183,-0.399698 7.831315,0.340432 11.687175,2.18299 z M 72.342594,85.638661 c -2.290233,1.273527 -3.939823,2.678994 -4.945946,3.515432 -2.521654,2.134658 -4.654902,4.716991 -6.316837,7.663389 -0.230013,0.412046 -0.67804,0.665339 -1.150763,0.665339 -0.472369,0 -0.921808,-0.253293 -1.151819,-0.665339 -1.660525,-2.946398 -3.795183,-5.528731 -6.316839,-7.663389 -0.993775,-0.847373 -2.6543,-2.241905 -4.933596,-3.515432 -0.01236,-0.01236 -0.02468,-0.01236 -0.03704,-0.02328 -0.92075,-0.510117 -1.951567,-1.007533 -3.09104,-1.431925 -0.424392,0.727781 -0.982485,1.371248 -1.660525,1.867252 -1.273175,0.945446 -2.64301,1.187804 -3.70981,1.187804 -0.873477,0 -1.528234,-0.156987 -1.758244,-0.217664 -0.702733,-0.194382 -1.11619,-0.921809 -0.921808,-1.624542 0.194027,-0.703085 0.921808,-1.115131 1.624541,-0.92075 0.182034,0.04833 1.818921,0.472723 3.176411,-0.534458 0.217662,-0.15734 0.412043,-0.351367 0.581728,-0.556684 -1.0668,-0.255058 -2.193922,-0.437091 -3.406772,-0.522464 -3.042708,-0.230011 -6.097765,0.182033 -9.056513,1.21285 -0.01093,0 -0.02328,0.01236 -0.03563,0.01236 -0.133704,0.04798 -0.267406,0.09631 -0.399698,0.14605 -0.01236,0.02328 -0.03704,0.03563 -0.04833,0.06068 -0.934154,0.968729 -1.552927,2.072571 -1.843617,3.297414 -0.424391,1.794227 -0.04833,3.406775 0.340432,4.436182 0.253293,0.679095 -0.08573,1.442508 -0.764823,1.709912 -0.157337,0.06068 -0.314325,0.08537 -0.472721,0.08537 -0.5334,0 -1.030816,-0.327732 -1.236133,-0.848783 -0.521055,-1.382184 -1.030817,-3.540125 -0.43674,-5.988757 0.194027,-0.836787 0.509765,-1.624893 0.921808,-2.36502 -0.04833,-0.06032 -0.08537,-0.13335 -0.121356,-0.205317 -0.23001,-0.497417 -0.133702,-1.055513 0.217665,-1.442508 -1.842207,-0.946857 -3.381727,-2.268363 -4.558594,-3.952523 -0.66675,-0.95744 -1.20015,-1.988257 -1.5748,-3.07975 -0.242713,-0.690385 0.121002,-1.44286 0.811387,-1.685219 0.690388,-0.242713 1.442863,0.121002 1.685573,0.8128 0.303036,0.860071 0.715082,1.673225 1.248482,2.436635 1.175454,1.685219 2.812343,2.921352 4.849283,3.661127 0.315383,0.121357 0.642054,0.218017 0.970137,0.30339 2.764367,-0.921808 5.600348,-1.346552 8.43774,-1.285875 -0.76341,-1.5875 -1.345142,-3.236735 -1.745898,-4.933243 -0.144993,-0.606432 -0.265995,-1.237554 -0.364068,-1.854914 -1.018117,-0.449085 -2.084917,-0.606425 -3.115733,-0.449085 -2.218619,0.339018 -3.575754,2.024237 -4.060825,2.739318 -0.255059,0.376415 -0.667102,0.583142 -1.091494,0.583142 -0.253648,0 -0.508706,-0.07302 -0.738716,-0.231775 -0.606425,-0.412043 -0.764824,-1.235781 -0.352777,-1.829858 0.67945,-0.993423 2.607378,-3.370792 5.856816,-3.866798 1.078794,-0.170744 2.181225,-0.09772 3.260371,0.180623 -0.04833,-1.514475 0.06068,-3.042708 0.303038,-4.569532 0.437091,-2.691341 1.309158,-5.395028 2.607379,-8.038393 0.205316,-0.449085 0.66675,-0.76341 1.20015,-0.76341 0.727781,0 1.321506,0.594077 1.321506,1.321506 0,0.205317 -0.04939,0.399696 -0.133705,0.581729 -0.800451,1.624542 -1.417812,3.260373 -1.867251,4.90996 1.842558,-0.558093 3.673826,-0.631118 5.407731,-0.206727 1.369483,0.340432 2.64301,0.982485 3.806119,1.904294 0.570441,0.448029 0.666749,1.284465 0.219074,1.854906 -0.267406,0.326673 -0.643818,0.496007 -1.043164,0.496007 -0.291042,0 -0.581729,-0.09631 -0.824087,-0.29069 -0.861484,-0.67804 -1.806575,-1.151819 -2.80035,-1.405467 -1.697567,-0.424391 -3.504142,-0.182033 -5.384094,0.702734 -0.230013,1.794226 -0.242358,3.588456 -0.03563,5.334351 0.09631,0.763413 0.23001,1.526823 0.399698,2.279298 0.47272,2.011892 1.248479,3.964517 2.291643,5.807075 2.425346,0.363715 4.570942,1.0541 6.4135,1.8796 0.03563,-0.886177 0.121002,-1.770591 0.267052,-2.64301 0.182034,-1.043165 0.423334,-2.02565 0.751065,-2.994379 -1.091496,-0.8255 -2.230967,-1.576562 -3.406423,-2.256012 -1.018469,-0.58138 -2.084917,-1.11478 -3.17641,-1.5875 -0.667105,-0.29069 -0.982488,-1.066449 -0.691798,-1.73355 0.2921,-0.667105 1.067858,-0.982488 1.73355,-0.691798 1.176866,0.509764 2.329039,1.091493 3.431468,1.722614 1.078796,0.61736 2.134658,1.309159 3.152775,2.036585 0.642408,-1.285523 1.369838,-2.389364 2.060223,-3.46851 1.260827,-1.938866 2.352323,-3.624088 2.739673,-5.903383 0.06068,-0.388763 0.110067,-0.775758 0.121002,-1.175456 -1.20015,-1.139825 -2.580923,-1.904648 -4.096808,-2.279298 -1.394532,-0.340429 -2.885369,-0.340429 -4.328232,0 -0.715433,0.169333 -1.418166,-0.267404 -1.5875,-0.982486 -0.171095,-0.715433 0.265997,-1.418166 0.981075,-1.5875 1.854907,-0.449437 3.782838,-0.449437 5.589413,0 1.066446,0.265997 2.084917,0.67804 3.03036,1.223786 -0.448026,-1.660523 -1.248833,-3.394427 -2.388306,-5.188302 -0.38735,-0.618771 -0.205317,-1.430512 0.412046,-1.819275 0.618771,-0.386996 1.430512,-0.205317 1.818921,0.412046 2.133248,3.383137 3.224741,6.632572 3.237089,9.67528 0,0 0,0 0,0.01236 0,0.726368 -0.06068,1.44145 -0.169333,2.145593 -0.472723,2.825046 -1.819275,4.897615 -3.128433,6.909506 -0.897115,1.382184 -1.829859,2.825044 -2.534002,4.570942 v 0.01236 c -0.435682,1.091494 -0.751065,2.193925 -0.945446,3.394075 -0.194379,1.164519 -0.278342,2.36502 -0.242359,3.56517 1.285523,0.751065 2.352323,1.526824 3.22439,2.218622 0.279752,-1.588913 0.631119,-3.15313 1.05551,-4.704647 0.472723,-1.708853 1.041755,-3.431468 1.696509,-5.091993 0.267406,-0.677685 1.030816,-1.018117 1.710266,-0.75071 0.67804,0.265641 1.018117,1.030462 0.751065,1.708502 -0.61736,1.576564 -1.163108,3.201458 -1.612548,4.826 -0.5334,1.96356 -0.957792,3.975451 -1.236133,5.989108 1.867254,1.696156 3.515431,3.624085 4.922308,5.758743 1.405821,-2.134658 3.055408,-4.062587 4.92125,-5.758743 -0.278342,-2.026002 -0.703085,-4.025548 -1.236133,-5.989108 -0.448027,-1.624542 -0.981075,-3.249436 -1.612546,-4.826 -0.267054,-0.67804 0.06068,-1.442861 0.751062,-1.708502 0.67945,-0.267407 1.442863,0.06033 1.710267,0.75071 0.654404,1.660525 1.225198,3.38314 1.697921,5.091993 0.424392,1.540582 0.775758,3.115734 1.0541,4.704647 0.872067,-0.67945 1.951212,-1.455209 3.224387,-2.218622 0.0374,-1.20015 -0.04798,-2.400651 -0.242358,-3.56517 -0.205317,-1.187804 -0.508352,-2.302581 -0.945444,-3.381375 0,0 0,0 0,-0.0127 -0.702733,-1.745898 -1.63689,-3.188758 -2.534002,-4.570942 -1.309158,-2.011891 -2.6543,-4.085873 -3.127023,-6.909506 -0.121002,-0.704143 -0.181681,-1.419225 -0.170743,-2.147006 0.01236,-3.042709 1.103841,-6.303079 3.237087,-9.673519 0.388408,-0.61877 1.212498,-0.800804 1.818923,-0.412043 0.618773,0.386998 0.800806,1.211085 0.412043,1.81751 -1.13947,1.794229 -1.927928,3.540125 -2.388303,5.189715 0.945443,-0.558094 1.963912,-0.97014 3.03036,-1.237544 1.794227,-0.447675 3.734506,-0.447675 5.58941,0 0.715081,0.170744 1.152173,0.886177 0.982485,1.58891 -0.169333,0.715079 -0.886177,1.152171 -1.58891,0.981075 -1.44286,-0.351366 -2.946045,-0.351366 -4.328229,0 -1.514475,0.376412 -2.896658,1.139825 -4.097163,2.279296 0.02363,0.401108 0.06068,0.788458 0.121357,1.176866 0.38735,2.279298 1.466143,3.964517 2.739673,5.903384 0.702733,1.079148 1.417812,2.195337 2.061633,3.467454 1.018117,-0.738717 2.072569,-1.418167 3.151362,-2.03694 1.103842,-0.629708 2.254602,-1.211085 3.431469,-1.721202 0.66675,-0.290689 1.442863,0.01236 1.73355,0.691796 0.29069,0.665692 -0.01236,1.44145 -0.691796,1.73355 -1.090083,0.472723 -2.157941,1.006123 -3.176412,1.5875 -1.175454,0.667104 -2.315279,1.430515 -3.406421,2.254604 0.327732,0.957792 0.58279,1.952625 0.752475,2.994377 0.14464,0.873832 0.23001,1.758598 0.265642,2.64301 1.843968,-0.824087 3.977216,-1.514475 6.4135,-1.878187 1.05551,-1.831271 1.81892,-3.782837 2.291643,-5.807075 0.182034,-0.752475 0.315736,-1.515887 0.399698,-2.279298 0.219075,-1.758243 0.194379,-3.552473 -0.03598,-5.334351 -1.8669,-0.884767 -3.673829,-1.127125 -5.382331,-0.704147 -0.995186,0.242713 -1.940277,0.716492 -2.80035,1.40688 -0.242359,0.194379 -0.534459,0.291042 -0.8255,0.291042 -0.386996,0 -0.775759,-0.169688 -1.041752,-0.497772 -0.449085,-0.569028 -0.363715,-1.405466 0.217665,-1.854552 1.164518,-0.92075 2.436635,-1.562806 3.806118,-1.903235 1.73496,-0.424391 3.565171,-0.351366 5.407729,0.206727 -0.435679,-1.64959 -1.0668,-3.285066 -1.867252,-4.90996 -0.08432,-0.182033 -0.132292,-0.37606 -0.132292,-0.58279 0,-0.726368 0.593725,-1.321504 1.321507,-1.321504 0.533045,0 1.005768,0.315384 1.211085,0.777169 1.298223,2.630662 2.170642,5.332942 2.595033,8.025693 0.242359,1.526824 0.339019,3.055057 0.303035,4.569532 1.079149,-0.278342 2.17029,-0.339021 3.261784,-0.182034 3.248025,0.497417 5.175956,2.873375 5.855406,3.868209 0.412044,0.606425 0.255058,1.430512 -0.351367,1.83021 -0.230364,0.158398 -0.485068,0.23001 -0.740126,0.23001 -0.424392,0 -0.836438,-0.205316 -1.091497,-0.581729 -0.485068,-0.715081 -1.842203,-2.4003 -4.060825,-2.739321 -1.030816,-0.158395 -2.097616,0 -3.115733,0.447675 -0.09666,0.618773 -0.218017,1.248482 -0.364067,1.854907 -0.399343,1.697918 -0.982485,3.347156 -1.745895,4.934656 2.849737,-0.06032 5.674783,0.376412 8.437737,1.285875 0.328083,-0.08537 0.643467,-0.194381 0.97014,-0.303038 2.03694,-0.740127 3.661481,-1.97626 4.836935,-3.661479 0.534813,-0.752475 0.946856,-1.576564 1.249892,-2.437696 0.242713,-0.690385 0.993423,-1.054452 1.683808,-0.811741 0.6918,0.242358 1.05586,0.993423 0.81315,1.685221 -0.37606,1.091493 -0.909458,2.133245 -1.57656,3.078691 -1.187802,1.685219 -2.714625,3.019071 -4.558242,3.952169 0.340077,0.388408 0.449085,0.946502 0.219075,1.44286 -0.03739,0.07302 -0.07303,0.14605 -0.121356,0.20673 0.412046,0.751062 0.715081,1.539168 0.920398,2.363258 0.583141,2.450042 0.08537,4.607983 -0.435327,5.990167 -0.20673,0.5334 -0.704146,0.847725 -1.237546,0.847725 -0.156986,0 -0.314325,-0.02363 -0.472721,-0.08432 -0.67945,-0.254707 -1.030816,-1.018117 -0.763413,-1.709915 0.38735,-1.030817 0.763413,-2.643362 0.339022,-4.437237 -0.29069,-1.223788 -0.909463,-2.32763 -1.842559,-3.297767 -0.02469,-0.02363 -0.03563,-0.03598 -0.04798,-0.06068 -0.133702,-0.04833 -0.267404,-0.09631 -0.401109,-0.144637 -0.01093,0 -0.02328,-0.01236 -0.03598,-0.01236 -2.958393,-1.030817 -6.01345,-1.442861 -9.056158,-1.21285 -1.200502,0.08537 -2.339975,0.279752 -3.406775,0.522464 0.169688,0.205317 0.364067,0.386996 0.581731,0.556684 1.358548,1.005768 2.994377,0.593725 3.176411,0.5334 0.704146,-0.192971 1.431573,0.219075 1.624541,0.921808 0.194382,0.702733 -0.217662,1.43016 -0.920395,1.624542 -0.231775,0.06068 -0.88618,0.217662 -1.758598,0.217662 -1.0541,0 -2.436284,-0.242359 -3.709459,-1.187802 -0.67945,-0.508352 -1.248481,-1.139473 -1.660525,-1.867252 -1.139825,0.424392 -2.170641,0.92216 -3.104795,1.44286 0.01236,-0.01236 0.01236,0 0,0 z"
           style="fill:#1da373;fill-opacity:1;fill-rule:nonzero;stroke:none;stroke-width:0.0352777" />
        <path
           id="path2"
           d="m 52.111494,102.45911 c 3.806119,4.31588 5.8801,9.68621 5.83071,15.10594 -0.04833,5.47899 -2.254601,9.81992 -4.084814,12.48657 -0.254704,0.37606 -0.66675,0.57044 -1.091142,0.57044 -0.255058,0 -0.522462,-0.073 -0.752475,-0.23001 -0.606425,-0.41345 -0.751062,-1.23754 -0.339019,-1.84397 1.624542,-2.36326 3.576109,-6.19443 3.624086,-11.00772 0.04974,-4.76392 -1.794227,-9.50454 -5.163254,-13.32442 -0.279755,-0.31397 -0.583142,-0.64206 -0.897115,-0.95779 -0.522465,-0.5207 -0.510117,-1.35714 0,-1.86584 0.5207,-0.52211 1.357135,-0.50977 1.865842,0 0.352777,0.35136 0.67945,0.70308 1.007181,1.0668 z m 18.488025,-1.07915 c -0.521055,-0.5207 -1.35749,-0.50976 -1.867255,0 -0.351718,0.35136 -0.690385,0.71543 -1.00612,1.0668 -3.806121,4.31588 -5.8801,9.68622 -5.831771,15.10594 0.04939,5.47899 2.255663,9.81992 4.085873,12.48657 0.254706,0.37606 0.66675,0.57044 1.091493,0.57044 0.254707,0 0.5207,-0.073 0.750713,-0.23036 0.606425,-0.41204 0.752475,-1.23719 0.340429,-1.8422 -1.624542,-2.36468 -3.577166,-6.19584 -3.625495,-11.00914 -0.04833,-4.76391 1.794227,-9.50454 5.165018,-13.32301 0.278342,-0.31538 0.581377,-0.64346 0.897115,-0.95779 0.5207,-0.50976 0.5207,-1.3462 0,-1.86725 z m -10.681406,6.11046 c -2.375607,0 -4.303535,-1.92793 -4.303535,-4.30389 0,-2.37701 1.927928,-4.303534 4.303535,-4.303534 2.377016,0 4.304948,1.926524 4.304948,4.303534 0,2.37596 -1.927932,4.30389 -4.304948,4.30389 z m 1.661935,-4.2926 c 0,-0.9084 -0.740127,-1.66052 -1.661935,-1.66052 -0.90805,0 -1.660525,0.73977 -1.660525,1.66052 0,0.92181 0.740127,1.66194 1.660525,1.66194 0.90946,-0.0127 1.661935,-0.75248 1.661935,-1.66194 z"
           style="fill:#1f44a0;fill-opacity:1;fill-rule:nonzero;stroke:none;stroke-width:0.0352777" />
        <path
           id="path3"
           d="m 2613.91,1479.06 c -16.18,0 -31.29,10.67 -36.1,27.15 -58.43,203.79 -247.42,346.09 -459.49,346.09 -88.98,0 -175.59,-24.41 -250.86,-71.13 -17.5,-11.01 -40.55,-5.51 -51.52,11.99 -11.02,17.54 -5.51,40.59 11.99,51.57 86.95,53.94 187.3,82.15 290.39,82.15 122.34,0 238.52,-39.18 335.78,-113.4 93.83,-71.84 163.56,-173.56 195.86,-286.96 5.86,-19.96 -5.82,-40.58 -25.74,-46.4 -3.44,-0.35 -6.88,-1.06 -10.31,-1.06 z m -196.25,34.38 c 17.54,10.66 23.36,34.02 12.38,51.56 -67.03,109.61 -183.52,174.92 -311.72,174.92 -34.69,0 -69.06,-4.8 -102.38,-14.45 -19.92,-5.82 -31.29,-26.45 -25.43,-46.37 5.82,-19.96 26.79,-31.29 46.37,-25.43 26.13,7.54 53.63,11.68 81.13,11.68 102.07,0 194.49,-51.91 247.77,-139.18 7.23,-11.68 19.22,-17.89 31.95,-17.89 7.23,-0.35 14.11,1.37 19.93,5.16 z m 292.81,260.15 c 127.15,169.07 320.98,265.98 532.3,265.98 140.24,0 274.26,-42.93 387.66,-124.37 16.84,-12.04 40.19,-8.25 52.23,8.59 12.03,16.83 8.28,40.19 -8.6,52.23 -126.09,90.7 -275.58,138.47 -431.29,138.47 -118.55,0 -231.6,-27.15 -336.44,-80.74 -85.55,-43.63 -162.89,-104.8 -225.78,-178.01 -62.89,73.21 -140.2,134.38 -225.78,178.01 -104.81,53.59 -217.86,80.74 -336.45,80.74 -156.02,0 -305.16,-48.08 -431.29,-138.83 -16.83,-12.03 -20.58,-35.39 -8.55,-52.22 11.99,-16.84 35.39,-20.63 52.22,-8.6 113.4,81.45 247.42,124.73 387.62,124.73 211.37,0 405.2,-96.91 532.34,-265.98 7.23,-9.29 18.21,-15.11 29.89,-15.11 11.72,0 23.04,5.82 29.92,15.11 z m 72.85,-267.38 c 58.44,203.79 247.42,346.09 459.45,346.09 89.03,0 175.63,-24.41 250.9,-71.13 17.5,-11.01 40.55,-5.51 51.53,11.99 11.01,17.54 5.5,40.59 -12.04,51.57 -86.91,53.94 -187.26,82.15 -290.39,82.15 -122.34,0 -238.47,-39.18 -335.74,-113.4 -93.83,-71.84 -163.59,-173.56 -195.9,-286.96 -5.82,-19.96 5.86,-40.58 25.78,-46.4 3.44,-1.06 6.88,-1.37 10.32,-1.37 16.48,0.31 31.29,11.33 36.09,27.46 z m 211.68,19.61 c 53.28,86.95 146.05,139.18 247.77,139.18 27.85,0 55,-3.79 81.14,-11.68 19.92,-5.86 40.54,5.51 46.36,25.43 5.86,19.92 -5.47,40.55 -25.43,46.41 -32.96,9.61 -67.34,14.41 -102.38,14.41 -128.2,0 -244.69,-65.27 -311.72,-174.92 -10.66,-17.54 -5.15,-40.9 12.38,-51.56 6.18,-3.75 12.7,-5.47 19.58,-5.47 12.73,0.31 25.11,6.87 32.3,18.2 z"
           style="fill:url(#linearGradient4);fill-opacity:1;fill-rule:nonzero;stroke:none"
           transform="matrix(0.03527778,0,0,-0.03527778,-34.623507,199.44124)"
           clip-path="url(#clipPath4)" />
      </g>
      <g
         id="g1"
         transform="translate(14.838512,-35.679242)">
        <path
           id="path5"
           d="m 104.61609,108.66829 c 2.81325,3.00077 6.58218,4.9193 10.91821,4.9193 6.38429,0 11.20951,-4.53382 11.20951,-9.20981 0,-6.339093 -5.87175,-9.291703 -10.39592,-11.012283 -4.19715,-1.571481 -6.29022,-2.569992 -6.29022,-4.430146 0,-1.908156 1.42933,-3.487361 5.33712,-3.487361 2.66401,0 4.24258,0.813603 5.3832,2.197528 0.52487,0.615729 1.33849,0.998511 2.19751,0.998511 1.57143,0 2.81325,-1.234677 2.81325,-2.813238 0,-0.709802 -0.2407,-1.383924 -0.72019,-1.860153 -2.09306,-2.385029 -5.19503,-4.245165 -9.67377,-4.245165 -6.82485,0 -11.06028,4.627321 -11.06028,9.209878 0,5.243694 4.52415,7.719559 10.01375,9.76786 4.04729,1.581209 6.67303,2.906739 6.67303,5.674569 0,1.81466 -1.76606,3.47697 -5.48699,3.47697 -2.76719,0 -4.90632,-1.04671 -6.76907,-3.09424 -0.52229,-0.57031 -1.29048,-0.90508 -2.10149,-0.90508 -1.57142,0 -2.86126,1.28976 -2.86126,2.85859 0,0.76819 0.28871,1.43193 0.81361,1.95427 z m 52.39671,-27.837892 -7.53465,9.917086 c -0.5703,0.757804 -1.52341,0.757804 -2.0937,0 l -7.53465,-9.917086 c -0.52231,-0.674104 -1.33591,-1.104925 -2.24294,-1.104925 -1.6175,0 -2.86192,1.289833 -2.86192,2.861259 0,0.674121 0.19789,1.289832 0.58069,1.766062 l 9.19756,12.163204 c 0.5703,0.757804 1.04913,2.235087 1.04913,3.188316 v 11.067316 c 0,1.5716 1.28982,2.86138 2.85866,2.86138 1.5714,0 2.86125,-1.28978 2.86125,-2.86138 V 99.704314 c 0,-0.953229 0.47688,-2.430512 1.04718,-3.188316 l 9.20728,-12.163204 c 0.37503,-0.47623 0.57031,-1.091941 0.57031,-1.766062 0,-1.571426 -1.24183,-2.861259 -2.85867,-2.861259 -0.90767,0 -1.72129,0.430821 -2.24553,1.104925 z m 20.7438,29.941232 v -4.53384 c 0,-0.9529 0.80647,-1.76671 1.75893,-1.76671 h 5.01077 c 6.62761,0 12.24631,-5.618589 12.24631,-12.246261 0,-6.67562 -5.6187,-12.256045 -12.24631,-12.256045 h -8.91856 c -1.95423,0 -3.57106,1.616835 -3.57106,3.524989 v 27.277867 c 0,1.5716 1.2801,2.86138 2.86125,2.86138 1.56884,0 2.85867,-1.28978 2.85867,-2.86138 z m 0,-13.779402 v -9.534211 c 0,-0.953122 0.80647,-1.766726 1.75893,-1.766726 h 5.01077 c 3.85979,0 6.52639,2.617958 6.52639,6.533528 0,3.859844 -2.6666,6.526266 -6.52639,6.526266 h -5.01077 c -0.95246,0 -1.75893,-0.805681 -1.75893,-1.758857 z m 34.65626,13.779402 v -4.53384 c 0,-0.9529 0.81298,-1.76671 1.76606,-1.76671 h 2.61796 c 0.9531,0 2.24295,0.62623 2.86191,1.38404 l 5.05554,6.62748 c 0.52489,0.67418 1.33849,1.10499 2.24555,1.10499 1.56881,0 2.85928,-1.28977 2.85928,-2.87171 0,-0.66378 -0.19527,-1.27939 -0.57029,-1.75638 l -3.43935,-4.48842 c -0.5703,-0.70916 -0.37502,-1.80428 0.43081,-2.33624 3.10197,-2.187208 5.15026,-5.862143 5.15026,-9.910021 0,-6.6276 -5.58107,-12.208025 -12.20866,-12.208025 h -8.91079 c -1.95163,0 -3.57885,1.568815 -3.57885,3.52304 v 27.231796 c 0,1.5716 1.28985,2.86138 2.85866,2.86138 1.5818,0 2.86191,-1.28978 2.86191,-2.86138 z m 0,-13.779402 v -9.488804 c 0,-0.953102 0.81298,-1.766705 1.76606,-1.766705 h 5.00301 c 3.87014,0 6.48809,2.628329 6.48809,6.4881 0,3.908507 -2.61795,6.526266 -6.48809,6.526266 h -5.00301 c -0.95308,0 -1.76606,-0.805681 -1.76606,-1.758857 z m 48.72381,10.629612 h -12.33976 c -0.95309,0 -1.76672,-0.8138 -1.76672,-1.76672 v -4.57237 c 0,-0.95298 0.81363,-1.765998 1.76672,-1.765998 h 9.00227 c 1.58115,0 2.86125,-1.29049 2.86125,-2.861842 0,-1.568833 -1.2801,-2.858593 -2.86125,-2.858593 h -9.00227 c -0.95309,0 -1.76672,-0.813676 -1.76672,-1.766779 v -4.571521 c 0,-0.953122 0.81363,-1.766726 1.76672,-1.766726 h 12.33976 c 1.58179,0 2.86125,-1.289833 2.86125,-2.861258 0,-1.571425 -1.27946,-2.861259 -2.86125,-2.861259 h -16.25598 c -1.95357,0 -3.57041,1.616835 -3.57041,3.57106 v 26.223606 c 0,1.96388 1.61684,3.58085 3.57041,3.58085 h 16.25598 c 1.58179,0 2.86125,-1.28977 2.86125,-2.86131 0,-1.57136 -1.27946,-2.86114 -2.86125,-2.86114 z m 13.59195,1.04645 c 2.81582,3.00077 6.58218,4.9193 10.92077,4.9193 6.38433,0 11.19979,-4.53382 11.19979,-9.20981 0,-6.339093 -5.862,-9.291703 -10.38616,-11.012283 -4.19911,-1.571481 -6.30062,-2.569992 -6.30062,-4.430146 0,-1.908156 1.42998,-3.487361 5.34557,-3.487361 2.66596,0 4.23479,0.813603 5.38513,2.197528 0.52489,0.615729 1.33849,0.998511 2.18779,0.998511 1.58115,0 2.81323,-1.234677 2.81323,-2.813238 0,-0.709802 -0.23356,-1.383924 -0.70979,-1.860153 -2.10344,-2.385029 -5.19827,-4.245165 -9.67636,-4.245165 -6.8229,0 -11.06808,4.627321 -11.06808,9.209878 0,5.243694 4.53388,7.719559 10.01375,9.76786 4.05509,1.581209 6.67302,2.906739 6.67302,5.674569 0,1.81466 -1.75632,3.47697 -5.47727,3.47697 -2.76716,0 -4.90888,-1.04671 -6.76904,-3.09424 -0.52228,-0.57031 -1.28983,-0.90508 -2.10344,-0.90508 -1.56883,0 -2.85932,1.28976 -2.85932,2.85859 0,0.76819 0.28937,1.43193 0.81103,1.95427 z"
           style="fill:#1f44a0;fill-opacity:1;fill-rule:nonzero;stroke:none;stroke-width:0.064881" />
      </g>
    </g>
  </g>
</svg>
